/* XPM */
static char *result[] = {
/* columns rows colors chars-per-pixel */
"64 64 5 1 ",
"  c #847D00",
". c #22B04C",
"X c #22B14C",
"o c #23B14C",
"O c #FFF200",
/* pixels */
"XXXXXXXXXXXXXXXXXXXXXXXXXXXXXXXXXXXXXXXXXXXXXXXXXXXXXXXXXXXXXXXX",
"XXXXXXXXXXXXXXXXXXXXXXXXXXXXXXXXXXXXXXXXXXXXXXXXXXXXXXXXXXXXXXXX",
"XXXXXXXXXXXXXXXXXXXXXXXXXXXXXXXXXXXXXXXXXXXXXXXXXXXXXXXXXXXXXXXX",
"XXXXXXXXXXXXXXXXXXXXXXXXXXXOOOOOOOOOOXXXXXXXXXXXXXXXXXXXXXXXXXXX",
"XXXXXXXXXXXXXXXXXXXXXXXXOOOOOOOOOOOOOOOOXXXXXXXXXXXXXXXXXXXXXXXX",
"XXXXXXXXo.XXXXXXXXXXXOOOOOOOOOOOOOOOOOOOOOOXXXXXXXXXXXXXXXXXXXXX",
"XXXXXXXXXX.XXXXXXXXOOOOOOOOOOOOOOOOOOOOOOOOOOXXXXXXXXXXXXXXXXXXX",
"XXXXXXXXXXX.XXXXXOOOOOOOOOOOOOOOOOOOOOOOOOOOOOOXXXXXXXXXXXXXXXXX",
"XXXXXXXXXXXX.XXXOOOOOOOOOOOOOOOOOOOOOOOOOOOOOOOOXXXXXXXXXXXXXXXX",
"XXXXXXXXXXXXX.XOOOOOOOOOOOOOOOOOOOOOOOOOOOOOOOOOOXXXXXXXXXXXXXXX",
"XXXXXXXXXXXXXXOOOOOOOOOOOOOOOOOOOOOOOOOOOOOOOOOOOOXXXXXXXXXXXXXX",
"XXXXXXXXXXXXXOOOOOOOOOOOOOOOOOOOOOOOOOOOOOOOOOOOOOOXXXXXXXXXXXXX",
"XXXXXXXXXXXXOOOOOOOOOOOOOOOOOOOOOOOOOOOOOOOOOOOOOOOOXXXXXXXXXXXX",
"XXXXXXXXXXXOOOOOOOOOOO  OOOOOOOOOOOOOOOOOOOOOOOOOOOOOXXXXXXXXXXX",
"XXXXXXXXXXOOOOOOOOOOO     OOOOOOOOOOO  OOOOOOOOOOOOOOOXXXXXXXXXX",
"XXXXXXXXXOOOOOOOOOOO      OOOOOOOOOO    OOOOOOOOOOOOOOOXXXXXXXXX",
"XXXXXXXXXOOOOOOOOOOO       OOOOOOOO      OOOOOOOOOOOOOOXXXXXXXXX",
"XXXXXXXXOOOOOOOOOOO        OOOOOOOO      OOOOOOOOOOOOOOOXXXXXXXX",
"XXXXXXXXOOOOOOOOOOO        OOOOOOOO      OOOOOOOOOOOOOOOXXXXXXXX",
"XXXXXXXOOOOOOOOOOOO        OOOOOOOO      OOOOOOOOOOOOOOOOXXXXXXX",
"XXXXXXXOOOOOOOOOOOO        OOOOOOOO       OOOOOOOOOOOOOOOXXXXXXX",
"XXXXXXXOOOOOOOOOOOO        OOOOOOO        OOOOOOOOOOOOOOOXXXXXXX",
"XXXXXXOOOOOOOOOOOOO         OOOOOO        OOOOOOOOOOOOOOOOXXXXXX",
"XXXXXXOOOOOOOOOOOO          OOOOOO        OOOOOOOOOOOOOOOOXXXXXX",
"XXXXXXOOOOOOOOOOOO          OOOOOO        OOOOOOOOOOOOOOOOXXXXXX",
"XXXXXXOOOOOOOOOOOO          OOOOOO        OOOOOOOOOOOOOOOOOXXXXX",
"XXXXXOOOOOOOOOOOOO          OOOOOO        OOOOOOOOOOOOOOOOOXXXXX",
"XXXXXOOOOOOOOOOOOO          OOOOOO        OOOOOOOOOOOOOOOOOXXXXX",
"XXXXXOOOOOOOOOOOOO          OOOOOO        OOOOOOOOOOOOOOOOOXXXXX",
"XXXXXOOOOOOOOOOOOO          OOOOOO        OOOOOOOOOOOOOOOOOXXXXX",
"XXXXXOOOOOOOOOOOOO          OOOOOO        OOOOOOOOOOOOOOOOOXXXXX",
"XXXXXOOOOOOOOOOOOO          OOOOOO        OOOOOOOOOOOOOOOOOXXXXX",
"XXXXXOOOOOOOOOOOOO          OOOOOO        OOOOOOOOOOOOOOOOOXXXXX",
"XXXXXOOOOOOOOOOOOO          OOOOOO        OOOOOOOOOOOOOOOOOXXXXX",
"XXXXXOOOOOOOOOOOOO          OOOOOO        OOOOOOOOOOOOOOOOOXXXXX",
"XXXXXXOOOOOOOOOOOO          OOOOOO        OOOOOOOOOOOOOOOOOXXXXX",
"XXXXXXOOOOOOOOOOOO          OOOOOO        OOOOOOOOOOOOOOOOXXXXXX",
"XXXXXXOOOOOOOOOOOO          OOOOOO        OOOOOOOOOOOOOOOOXXXXXX",
"XXXXXXOOOOOOOOOOOO          OOOOOO        OOOOOOOOOOOOOOOOXXXXXX",
"XXXXXXXOOOOOOOOOOO          OOOOOO        OOOOOOOOOOOOOOOXXXXXXX",
"XXXXXXXOOOOOOOOOOO          OOOOOO        OOOOOOOOOOOOOOOXXXXXXX",
"XXXXXXXOOOOOOOOOOO          OOOOOO        OOOOOOOOOOOOOOOXXXXXXX",
"XXXXXXXXOOOOOOOOOOO        OOOOOOOO      OOOOOOOOOOOOOOOXXXXXXXX",
"XXXXXXXXOOOOOOOOOOO        OOOOOOOO      OOOOOOOOOOOOOOOXXXXXXXX",
"XXXXXXXXXOOOOOOOOOO        OOOOOOOO      OOOOOOOOOOOOOOXXXXXXXXX",
"XXXXXXXXXOOOOOOOOOO        OOOOOOOO      OOOOOOOOOOOOOOXXXXXXXXX",
"XXXXXXXXXXOOOOOOOOO        OOOOOOOOO    OOOOOOOOOOOOOOXXXXXXXXXX",
"XXXXXXXXXXXOOOOOOOOO       OOOOOOOOOO  OOOOOOOOOOOOOOXXXXXXXXXXX",
"XXXXXXXXXXXXOOOOOOOO      OOOOOOOOOOOOOOOOOOOOOOOOOOXXXXXXXXXXXX",
"XXXXXXXXXXXXOOOOOOOO      OOOOOOOOOOOOOOOOOOOOOOOOOOXXXXXXXXXXXX",
"XXXXXXXXXXXXXXOOOOOOO    OOOOOOOOOOOOOOOOOOOOOOOOOXXXXXXXXXXXXXX",
"XXXXXXXXXXXXXXXOOOOOOOOOOOOOOOOOOOOOOOOOOOOOOOOOOXXXXXXXXXXXXXXX",
"XXXXXXXXXXXXXXXXOOOOOOOOOOOOOOOOOOOOOOOOOOOOOOOOXXXXXXXXXXXXXXXX",
"XXXXXXXXXXXXXXXXXOOOOOOOOOOOOOOOOOOOOOOOOOOOOOOXXXXXXXXXXXXXXXXX",
"XXXXXXXXXXXXXXXXXXXOOOOOOOOOOOOOOOOOOOOOOOOOOXXXXXXXXXXXXXXXXXXX",
"XXXXXXXXXXXXXXXXXXXXXOOOOOOOOOOOOOOOOOOOOOOXXXXXXXXXXXXXXXXXXXXX",
"XXXXXXXXXXXXXXXXXXXXXXXOOOOOOOOOOOOOOOOOOXXXXXXXXXXXXXXXXXXXXXXX",
"XXXXXXXXXXXXXXXXXXXXXXXXXXXOOOOOOOOOOXXXXXXXXXXXXXXXXXXXXXXXXXXX",
"XXXXXXXXXXXXXXXXXXXXXXXXXXXXXXXXXXXXXXXXXXXXXXXXXXXXXXXXXXXXXXXX",
"XXXXXXXXXXXXXXXXXXXXXXXXXXXXXXXXXXXXXXXXXXXXXXXXXXXXXXXXXXXXXXXX",
"XXXXXXXXXXXXXXXXXXXXXXXXXXXXXXXXXXXXXXXXXXXXXXXXXXXXXXXXXXXXXXXX",
"XXXXXXXXXXXXXXXXXXXXXXXXXXXXXXXXXXXXXXXXXXXXXXXXXXXXXXXXXXXXXXXX",
"XXXXXXXXXXXXXXXXXXXXXXXXXXXXXXXXXXXXXXXXXXXXXXXXXXXXXXXXXXXXXXXX",
"XXXXXXXXXXXXXXXXXXXXXXXXXXXXXXXXXXXXXXXXXXXXXXXXXXXXXXXXXXXXXXXX"
};
