/* XPM */
static char *result[] = {
/* columns rows colors chars-per-pixel */
"64 64 14 1 ",
"  c black",
". c #060403",
"X c #0E0A07",
"o c #110B08",
"O c #170F0B",
"+ c #4B3223",
"@ c #62412E",
"# c #734C36",
"$ c #85583E",
"% c #B97A57",
"& c #22B04C",
"* c #22B14C",
"= c #23B14C",
"- c white",
/* pixels */
"****************************************************************",
"****************************************************************",
"****************************************************************",
"****************************************************************",
"****************************************************************",
"********=&******************************************************",
"**********&**                                         **********",
"***********&*                                         **********",
"************&                                         **********",
"*************                                         **********",
"*************                                         **********",
"*************     %%%%%%%%%%%%%%%%%%%%%%%%%%%%%%%     **********",
"*************     %%%%%%%%%%%%%%%%%%%%%%%%%%%%%%%     **********",
"*************     %%%%%%%%%%%%%%%%%%%%%%%%%%%%%%%     **********",
"*************     %%%%%%%%%%%%%%%%%%%%%%%%%%%%%%%     **********",
"*************     %%%%%%%%%%%%%$O         O#%%%%%     **********",
"*************     %%%%%%%$O                .%%%%%     **********",
"*************     %%%%%%%o                  %%%%%     **********",
"*************     %%%%%%%        +-------   %%%%%     **********",
"*************     %%%%%%%   -------------   %%%%%     **********",
"*************     %%%%%%$   -------------   %%%%%     **********",
"*************     %%%%%%o   -------------   %%%%%     **********",
"*************     %%%%%%   +-------------   %%%%%     **********",
"*************     %%%%%%   --------------   %%%%%     **********",
"*************     %%%%%%                    %%%%%     **********",
"*************     %%%%%%.                   %%%%%     **********",
"*************     %%%%%%@                  +%%%%%     **********",
"*************     %%%%%%%%%%%%%%%%%%%%%%%%%%%%%%%     **********",
"*************     %%%%%%%%%%%%%%%%%%%%%%%%%%%%%%%     **********",
"*************     %%%%%%%%%%%%%%%%%%%%%%%%%%%%%%%     **********",
"*************     %%%%%%%%%%%%%%%%%%%%%%%%%%%%%%%     **********",
"*************     %%%%%%%%%%%%%%%%%%%%%%%%%%%%%%%     **********",
"*************     %%%%%%%%%%%%%%%%%%%%%%%%%%%%%%%     **********",
"*************     %%$O oX  O#%%%%%%%%%%%%%%%%%%%%     **********",
"*************     %%o         O#%%%%%%%%%%%%%%%%%     **********",
"*************     %%.          .%%%%%%%%%%%%%%%%%     **********",
"*************     %%@    +@    +%%%%%%%%%%%%%%%%%     **********",
"*************     %%%@  +%%%%%%%%%%%%%%%%%%%%%%%%     **********",
"*************     %%%%%%%%%%%%%%%%%%%%%%%%%%%%%%%     **********",
"*************     %%%%%%%%%%%%%%%%%%%%%%%%%%%%%%%     **********",
"*************     %%%%%%%%%%%%%%%%%%%%%%%%%%%%%%%     **********",
"*************     %%%%%%%%%%%%%%%%%%%%%%%%%%%%%%%     **********",
"*************     %%%%%%%%%%%%%%%%%%%%%%%%%%%%%%%     **********",
"*************     %%%%%%%%%%%%%%%%%%%%%%%%%%%%%%%     **********",
"*************     %%%%%%%%%%%%%%%%%%%%%%%%%%%%%%%     **********",
"*************     %%%%%%%%%%%%%%%%%%%%%%%%%%%%%%%     **********",
"*************     %%%%%%%%%%%%%%%%%%%%%%%%%%%%%%%     **********",
"*************     %%%%%%%%%%%%%%%%%%%%%%%%%%%%%%%     **********",
"*************     %%%%%%%%%%%%%%%%%%%%%%%%%%%%%%%     **********",
"*************     %%%%%%%%%%%%%%%%%%%%%%%%%%%%%%%     **********",
"*************     %%%%%%%%%%%%%%%%%%%%%%%%%%%%%%%     **********",
"*************     %%%%%%%%%%%%%%%%%%%%%%%%%%%%%%%     **********",
"*************     %%%%%%%%%%%%%%%%%%%%%%%%%%%%%%%     **********",
"*************                                         **********",
"*************                                         **********",
"*************                                         **********",
"*************                                         **********",
"*************                                         **********",
"****************************************************************",
"****************************************************************",
"****************************************************************",
"****************************************************************",
"****************************************************************",
"****************************************************************"
};
