/* XPM */
static char *result[] = {
/* columns rows colors chars-per-pixel */
"64 64 32 1 ",
"  c black",
". c #010000",
"X c #010100",
"o c #020201",
"O c #030201",
"+ c #010602",
"@ c #060403",
"# c #0B0705",
"$ c #020B05",
"% c #0C0805",
"& c #110B08",
"* c #170F0B",
"= c #04160A",
"- c #281A13",
"; c #2E1F16",
": c #362419",
"> c #3D281D",
", c #4B3223",
"< c #533727",
"1 c #0E481F",
"2 c #125E28",
"3 c #156E2F",
"4 c #187F37",
"5 c #62412E",
"6 c #734C36",
"7 c #686868",
"8 c #85583E",
"9 c #B97A57",
"0 c #22B04C",
"q c #22B14C",
"w c #23B14C",
"e c white",
/* pixels */
"qqqqqqqqqqqqqqqqqqqqqqqqqqqqqqqqqqqqqqqqqqqqqqqqqqqqqqqqqqqqqqqq",
"qqqqqqqqqqqqqqqqqqqqqqqqqqqqqqqqqqqqqqqqqqqqqqqqqqqqqqqqqqqqqqqq",
"qqqqqqqqqqqqqqqqqqqqqqqqqqqqqqqqqqqqqqqqqqqqqqqqqqqqqqqqqqqqqqqq",
"qqqqqqqqqqqqqqqqqqqq4=     =3qqqqqqqqqqqqqqqqqqqqqqqqqqqqqqqqqqq",
"qqqqqqqqqqqqqqqqq4=         +3qqqqqqqqqqqqqqqqqqqqqqqqqqqqqqqqqq",
"qqqqqqqqw0qqqqqq4$            =3qqqqqqqqqqqqqqqqqqqqqqqqqqqqqqqq",
"qqqqqqqqqq0qq                                         qqqqqqqqqq",
"qqqqqqqqqqq0q                                         qqqqqqqqqq",
"qqqqqqqqqqqq0                                         qqqqqqqqqq",
"qqqqqqqqqqqqq                                         qqqqqqqqqq",
"qqqqqqqqqqqqq                                         qqqqqqqqqq",
"qqqqqqqqqqqqq     98**6999& @9995   6999999999999     qqqqqqqqqq",
"qqqqqqqqqqqqq     9*  @999   9999@  @999999999999     qqqqqqqqqq",
"qqqqqqqqqqqqq     95  ,999O  99995   999999999999     qqqqqqqqqq",
"qqqqqqqqqqqqq     999999995 ,99998   999999999999     qqqqqqqqqq",
"qqqqqqqqqqqqq     69999999999998*         *699999     qqqqqqqqqq",
"qqqqqqqqqqqqq     @6999998*                @99999     qqqqqqqqqq",
"qqqqqqqqqqqqq       *6999&                  99999     qqqqqqqqqq",
"qqqqqqqqqqqqq          *6           eeeee   99999     qqqqqqqqqq",
"qqqqqqqqqqqqq                      7eeeee   99999     qqqqqqqqqq",
"qqqqqqqqqqqqq     95              7eeeeee   99999     qqqqqqqqqq",
"qqqqqqqqqqqqq     99995        7eeeeeeeee   99999     qqqqqqqqqq",
"qqqqqqqqqqqqq     99999&   ,eeeeeeeeeeeee   99999     qqqqqqqqqq",
"qqqqqqqqqqqqq     99999    eeeeeeeeeeeeee   99999     qqqqqqqqqq",
"qqqqqqqqqqqqq     99999                     99999     qqqqqqqqqq",
"qqqqqqqqqqqqq     99999                     9998*       =3qqqqqq",
"qqqqqqqqqqqqq     99999                    ,98*          +3qqqqq",
"qqqqqqqqqqqqq     998*    ;699999999999999998%            +3qqqq",
"qqqqqqqqqqqqq     98%      @6999999999999999&         q2   +3qqq",
"qqqqqqqqqqqqq     9&        @699998* *699998   ,9     qq2   +qqq",
"qqqqqqqqqqqqq     8   ,      @6999*    *698%   99     qqq2   qqq",
"qqqqqqqqqqqqq     %   9   5   @6995      *#   ,99     qqqq+  qqq",
"qqqqqqqqqqqqq        ,9   95   @69995        ,999     qqqq2 1qqq",
"qqqqqqqqqqqqq       :*     *>   @699995     o6999     qqqqqqqqqq",
"qqqqqqqqqqqqq       &            @69998%      *69     qqqqqqqqqq",
"qqqqqqqqqqqqq      ,@             @698%   -    @6     qqqqqqqqqq",
"qqqqqqqqqqqqq      95    ,5    -   @<%   ,95    @     qqqqqqqqqq",
"qqqqqqqqqqqqq     ,995   99999995       ,99995        qqqqqqqqqq",
"qqqqqqqqqqqqq     9999.  999999995     ,9999995       qqqqqqqqqq",
"qqqqqqqqqqqqq     9999   6999999995   ,9999999999     qqqqqqqqqq",
"qqqqqqqqqqqqq     98* X  @99999999999999999999999     qqqqqqqqqq",
"qqqqqqqqqqqqq     8%      69999999999999999999999     qqqqqqqqqq",
"qqqqqqqqqqqqq     %    o  @9999999999999999999999     qqqqqqqqqq",
"qqqqqqqqqqqqq        ,95   6999999999999999999999     qqqqqqqqqq",
"qqqqqqqqqqqqq       ,999@  @699999999999999999999     qqqqqqqqqq",
"qqqqqqqqqqqqq      ,99995   @99999999999999999999     qqqqqqqqqq",
"qqqqqqqqqqqqq      9999995   69999999999999999999     qqqqqqqqqq",
"qqqqqqqqqqqqq     ,9999999@  @6999999999999999999     qqqqqqqqqq",
"qqqqqqqqqqqqq     999999995   @699999999999999999     qqqqqqqqqq",
"qqqqqqqqqqqqq     9999999995   @99999999999999999     qqqqqqqqqq",
"qqqqqqqqqqqqq     99999999995   69999999999999999     qqqqqqqqqq",
"qqqqqqqqqqqqq     99999999999@  @6999999999999999     qqqqqqqqqq",
"qqqqqqqqqqqqq     999999999995   @999999999999999     qqqqqqqqqq",
"qqqqqqqqqqqqq                                         qqqqqqqqqq",
"qqqqqqqqqqqqq                                         qqqqqqqqqq",
"qqqqqqqqqqqqq                                         qqqqqqqqqq",
"qqqqqqqqqqqqq                                         qqqqqqqqqq",
"qqqqqqqqqqqqq                                         qqqqqqqqqq",
"qqqqqqqqqqqqqqqqqqqqqqqqqqqqqqqqqqqqqqqqqqqqqqqqqqqqqqqqqqqqqqqq",
"qqqqqqqqqqqqqqqqqqqqqqqqqqqqqqqqqqqqqqqqqqqqqqqqqqqqqqqqqqqqqqqq",
"qqqqqqqqqqqqqqqqqqqqqqqqqqqqqqqqqqqqqqqqqqqqqqqqqqqqqqqqqqqqqqqq",
"qqqqqqqqqqqqqqqqqqqqqqqqqqqqqqqqqqqqqqqqqqqqqqqqqqqqqqqqqqqqqqqq",
"qqqqqqqqqqqqqqqqqqqqqqqqqqqqqqqqqqqqqqqqqqqqqqqqqqqqqqqqqqqqqqqq",
"qqqqqqqqqqqqqqqqqqqqqqqqqqqqqqqqqqqqqqqqqqqqqqqqqqqqqqqqqqqqqqqq"
};
