/* XPM */
static char *result[] = {
/* columns rows colors chars-per-pixel */
"64 64 62 1 ",
"  c black",
". c #010101",
"X c #020202",
"o c gray1",
"O c #040404",
"+ c gray2",
"@ c #060606",
"# c #070707",
"$ c gray3",
"% c #090909",
"& c gray4",
"* c #0B0B0B",
"= c #0C0C0C",
"- c gray5",
"; c #0E0E0E",
": c gray6",
"> c #101010",
", c #111111",
"< c gray7",
"1 c #131313",
"2 c gray8",
"3 c #151515",
"4 c #161616",
"5 c gray9",
"6 c #191919",
"7 c gray10",
"8 c #1B1B1B",
"9 c gray11",
"0 c #1D1D1D",
"q c #1E1E1E",
"w c gray12",
"e c gray13",
"r c #222222",
"t c #232323",
"y c gray14",
"u c gray15",
"i c #282828",
"p c gray16",
"a c #2A2A2A",
"s c gray17",
"d c #2D2D2D",
"f c gray19",
"g c #313131",
"h c gray20",
"j c #343434",
"k c #373737",
"l c gray22",
"z c #393939",
"x c #3A3A3A",
"c c gray23",
"v c #3C3C3C",
"b c gray24",
"n c #3E3E3E",
"m c #3F3F3F",
"M c gray25",
"N c #414141",
"B c gray26",
"V c #434343",
"C c #444444",
"Z c gray27",
"A c #464646",
"S c None",
/* pixels */
"SSSSSSSSSSSSSSSSSSSSSSSSSSSSSSSSSSSSSSSSSSSSSSSSSSSSSSSSSSSSSSSS",
"SSSSSSSSSSSSSSSSSSSSSSSSSSSSSSSSSSSSSSSSSSSSSSSSSSSSSSSSSSSSSSSS",
"SSSSSSSSSSSSSSSSSSSSSSSSSSSSSSSSSSSSSSSSSSSSSSSS    SSSSSSSSSSSS",
"SSSSSSSSSSSSS  SSSSSSSSSSSSSS  SSSSSSSS  SSSSSS  SSSSSSSSSSSSSSS",
"SSSSSSSSSSSSSS  SSSSSSSSSSSSS   SSSSSS  SSSSSS  SSSSSSSSSSSSSSSS",
"SSSSSSSSSSSSSSS SSSSSSSSSSSSSS  SSSSS  SSSSSSS SSSSSSSSSSSSSSSSS",
"SSSSSSSSSSSSSSS  SSSSSSSSSSSS   SSSS  SSSSSSSS  SSSSSSSSSSSSSSSS",
"SSSSSSSSSSSSSS  SSSSSSSSSSSS  SSSSSS  SSSSSSS  SSSSSSSSSSSSSSSSS",
"SSSSSSSSSSSSSS  SSSSSSSSSSSS   SSSSS  SSSSSS  SSSSSSSSSSSSSSSSSS",
"SSSSSSSSSSSSSS  SSSSSSSSSSSSSS   SS           SSSSSSSSSSSSSSSSSS",
"SSSSSSSSSSSSSS  SSS   SSSSSSSSSS        SSSSSSSSSSSSSSSSSSSSSSSS",
"SSSSSSSSSSSSSS        SSSSSSSSSSS   SSSSSSSSSSSSSSSSSSSSSSSSSSSS",
"SSSSSSSSSSS         SSSSSSSSSSSSSS SSSSSSSSSSSSSSSSSSSSSSSSSSSSS",
"SSSSS SSSS   S    SSSSSSS  SSSSSSS SSSSSSSSSSS  SSSSSSSSSSSSSSSS",
"SSSSS  SSS SSS   SSSSSSSS  SSSSSSS SSSSSSSSSS  SSSSSSSSSSSSSSSSS",
"SSSSSS  SSS  S        S    SSSSSSS SSSSSSSSS SSSSSSSS   SSSSS SS",
"SSSSSS  SSSS    S        SS SSSSSS SSSSSS    SSSSSSSS  SSSSS  SS",
"SSSSSSS SSSS             SS  SSSS  SSSS      S S      SSSSS  SSS",
"SSSSSS  SSSSSSSSS .;<%    S  SSSS  SS    SS           SSSS  SSSS",
"SSSSSS  SSSSSSSSS -vmj<      SSSS  S   SSS    SSSSSSSSSSS  SSSSS",
"SSSSSS  SSSSSSSS  :nlVro     SSSSS     S     SSSSSSSSSSSS  SSSSS",
"SSSSSS  SSSSSSS   <VZn9o    SSSSS            SSSSSSSSSSS  SSSSSS",
"SSSSSSS  SSSSSSSSSXqC7O  ## SSSS             SSSSSSSSS   SSSSSSS",
"SSSSSSSS  SSSSSSSSS2V9. $sg4.SS            SSSSSSSSSS    SSSSSSS",
"SSSSSSSSS  SSSSSSSS>Vb: $gAZ4            SSSSSSSSSSSS SSSSSSSSSS",
"SSSSSSSSSSS SSSSSSS.wx:  %yZs@  +             SSSSSS  SSSSSSSSSS",
"SSSSSSSSSSSSSSSSSSS .;.   o8>X *qO                    SSSSSSSSSS",
"SSSSSSSSSSSSSSSSSSSS       .. %jV1#SSSSS .<,2,.       SS  SSSSSS",
"SSSSSSSSSSS                   :bNyi&S  S =vCCB:            SSSSS",
"SSSSSSS      SSS  S           .6mNj;     .qSq<.         SSSSSSSS",
"SSSSSSS  SSSSSSSSS  S          .5kbu@    SSS       SS    SSSSSSS",
"SSSS S   SSSSSSSSS      %3*$$    3f3X .. SSSS     SSSSSS SSSSSSS",
"SSSS   SSSSSSSSSSS     <kAzgi#    $X X;;X  SS  SSSSSSSSS SSSSSSS",
"SSSSSSSSSSSSSSSSSS   .3gBnMb3        @ti;  SS  SSSSSSSSS SSSSSSS",
"SSSSSSSSSSSSSSSSSS  .8Bwnhev8o       +0nf$      SSSSSSSS SSSSSSS",
"SSSSSSSSSSSSSSSSS   1bn9v5wc4      X245Mv:      SSSSSSSS  SSSSSS",
"SSSSSSSSSSSSSSSSS   1Vw+6*pfd=     1VjtBq.        SSSSSSSSSSSSSS",
"SSSSSSSSSSSSSSSSSS  -xtOX $,a&   SSX,&+ySSS  SSS   SSSSSSSSSSSSS",
"SSSSSSSS       SS   .eZq    $    S     SS    SSSS  SSSSSSSSSSSSS",
"SSSSSSSS SSSSS     S .2X               SSSSSSSSSS  SSSSSSSSSSSSS",
"SSSSSSS  SSSS   SSSS     SSS      S   SSSSSSSSSSS      SSSSSSSSS",
"SSSSSSSSSSSSS  SSSSSSSSSSSSS      S    SSSSSSSSSSSSSS    SSSSSSS",
"SSSSSSSSSSSSS  SSSSSSSSSSSSSSS    S   SSSS     SSSSSSSS SSSSSSSS",
"SSSSSSSSSSSSS  SS   SSSSSSSS       S            SSSSSSSSSSSSSSSS",
"SSSSSSSSSSSSS       SSSSSSS              SSSSSS    SSSSSSSSSSSSS",
"SSSSSSSSSSSSS  SSSSSSSSSSSS  SSSSS     SSSSSSSSSSS SSSSSSSSSSSSS",
"SSSSSSSSSSSS  SSSSSSSSSSSS   SSSSSS     SSSSSSSSSS  SSSSSSSSSSSS",
"SSSSSSSSSSSS  SSSSSSSSSSSSSSSSSSSS  SS  SSSSSSSSSS      SSSSSSSS",
"SSSS         SSSSSSSSSSSSS SSSSSSS  SS     SSSSSSSSSSSS SSSSSSSS",
"SSS        SSSSSSSSSSSSSS  SSSSSSS  SSSSS  SSSSSSSSSSSSSSSSSSSSS",
"SSSSSSSSSSSSSSSSSSSSSSSSSS SSSSSSS   SSSSS       SSSSSSSSSSSSSSS",
"SSSSSSSSSSSSSSSSSSSSSSSSSSS SSSSSSS   SSS     S  SSSSSSSSSSSSSSS",
"SSSSSSSSSSSSSSSSSSSSSSSSSSSSSSSSSSSSS SSS    SSS  SSSSSSSSSSSSSS",
"SSSSSSSSSSSSSSSSSSSSSSSSSSS  SSSSSSSSSSSSSS  SSSS SSSSSSSSSSSSSS",
"SSSSSSSSSSSSSSSSSSSSSSSSSSS  SSSSSSSSSSSSSS   SSSS        SSSSSS",
"SSSSSSSSSSSSSSSSSSSSSSSSSS  SSSSSSSSSSSSSSS   SSSSSSS       SSSS",
"SSSSSSSSSSSSSSSSSSSSSSSSS   SSSSSSSSSSSSSS  SSSSSSSSSSSSSSSSSSSS",
"SSSSSSSSSSSSSSSSSSSSSSS  S  SSSSSSSSSSSSS  SSSSSSSSSSSSSSSSSSSSS",
"SSSSSSSSSSSSSSSSSSSSSS  SSS SSSSSSSSSSSSS  SSSSSSSSSSSSSSSSSSSSS",
"SSSSSSSSSSSSSSSSSSSSSS  SSS    SSSSSSSSSSS  SSSSSSSSSSSSSSSSSSSS",
"SSSSSSSSSSSSSSSSSSSSSSSSSSSSSS SSSSSSSSSSSSSSSSSSSSSSSSSSSSSSSSS",
"SSSSSSSSSSSSSSSSSSSSSSSSSSSSSSSSSSSSSSSSSSSSSSSSSSSSSSSSSSSSSSSS",
"SSSSSSSSSSSSSSSSSSSSSSSSSSSSSSSSSSSSSSSSSSSSSSSSSSSSSSSSSSSSSSSS",
"SSSSSSSSSSSSSSSSSSSSSSSSSSSSSSSSSSSSSSSSSSSSSSSSSSSSSSSSSSSSSSSS"
};
