/* XPM */
static char *result[] = {
/* columns rows colors chars-per-pixel */
"64 64 24 1 ",
"  c black",
". c #3A0000",
"X c #00003A",
"o c #3A003A",
"O c #660000",
"+ c #000066",
"@ c #903A00",
"# c #B66600",
"$ c #B97A57",
"% c #22B04C",
"& c #22B14C",
"* c #23B14C",
"= c #DB903A",
"- c #FFB666",
"; c #003A90",
": c #3A90DB",
"> c #66B6FF",
", c #FFDB90",
"< c #FFFFB6",
"1 c #90DBFF",
"2 c #B6FFFF",
"3 c #FFFFDB",
"4 c #DBFFFF",
"5 c white",
/* pixels */
"&&&&&&&&&&&&&&&&&&&&&&&&&&&&&&&&&&&&&&&&&&&&&&&&&&&&&&&&&&&&&&&&",
"&&&&&&&&&&&&&&&&&&&&&&&&&&&&&&&&&&&&&&&&&&&&&&&&&&&&&&&&&&&&&&&&",
"&&&&&&&&&&&&&&&&&&&&&&&&&&&&&&&&&&&&&&&&&&&&&&&&&&&&&&&&&&&&&&&&",
"&&&&&&&&&&&&&&&&&&&&&&&&&&&&&&&&&&&&&&&&&&&&&&&&&&&&&&&&&&&&&&&&",
"&&&&&&&&&&&&&&&&&&&&&&&&&&&&&&&&&&&&&&&&&&&&&&&&&&&&&&&&&&&&&&&&",
"&&&&&&&&*%&&&&&&&&&&&&&&&&&&&&&&&&&&&&&&&&&&&&&&&&&&&&&&&&&&&&&&",
"&&&&&&&&&&%&&                                         &&&&&&&&&&",
"&&&&&&&&&&&%&                                         &&&&&&&&&&",
"&&&&&&&&&&&&%                                         &&&&&&&&&&",
"&&&&&&&&&&&&&                                         &&&&&&&&&&",
"&&&&&&&&&&&&&                                         &&&&&&&&&&",
"&&&&&&&&&&&&&     555555555555555555555               &&&&&&&&&&",
"&&&&&&&&&&&&&     555555555555555555555               &&&&&&&&&&",
"&&&&&&&&&&&&&     555555555555555555555     $$$$      &&&&&&&&&&",
"&&&&&&&&&&&&&     555555555555555555555     $$$$      &&&&&&&&&&",
"&&&&&&&&&&&&&     555555555555555555555     $$$$      &&&&&&&&&&",
"&&&&&&&&&&&&&     555555555555555555555     $$$$      &&&&&&&&&&",
"&&&&&&&&&&&&&     555555555555555555555     $$$$      &&&&&&&&&&",
"&&&&&&&&&&&&&     555555555555555555555     $$$$      &&&&&&&&&&",
"&&&&&&&&&&&&&     555555555555555555555     $$$$      &&&&&&&&&&",
"&&&&&&&&&&&&&     555555555555555555555     $$$$      &&&&&&&&&&",
"&&&&&&&&&&&&&     555555555555555555555     $$$$      &&&&&&&&&&",
"&&&&&&&&&&&&&     555555555555555555555     $$$$      &&&&&&&&&&",
"&&&&&&&&&&&&&     555555555555555555555     $$$$      &&&&&&&&&&",
"&&&&&&&&&&&&&     555555555555555555555     $$$$      &&&&&&&&&&",
"&&&&&&&&&&&&&     555555555555555555555     $$$$      &&&&&&&&&&",
"&&&&&&&&&&&&&     555#     :55#     :55     $$$$      &&&&&&&&&&",
"&&&&&&&&&&&&&     55#+25=X155#+25=X1555     $$$$      &&&&&&&&&&",
"&&&&&&&&&&&&&     5<O:55<O:5<O:55<O:555     $$$$      &&&&&&&&&&",
"&&&&&&&&&&&&&     5<O:55<O:5<O:55<O:555     $$$$      &&&&&&&&&&",
"&&&&&&&&&&&&&     55#+25=X155#+25=X1555     $$$$      &&&&&&&&&&",
"&&&&&&&&&&&&&     53@   X1553@   X15555     $$$$      &&&&&&&&&&",
"&&&&&&&&&&&&&     5,o1555555,o155555555     $$$$      &&&&&&&&&&",
"&&&&&&&&&&&&&     55#     >55#     >555     $$$$      &&&&&&&&&&",
"&&&&&&&&&&&&&     5<O:555=X1<O:555=X155     $$$$      &&&&&&&&&&",
"&&&&&&&&&&&&&     5=+2555,.>=+2555,.>55     $$$$      &&&&&&&&&&",
"&&&&&&&&&&&&&     5- >553@+2- >553@+255     $$$$      &&&&&&&&&&",
"&&&&&&&&&&&&&     55-    ;455-    ;4555     $$$$      &&&&&&&&&&",
"&&&&&&&&&&&&&     555555555555555555555     $$$$      &&&&&&&&&&",
"&&&&&&&&&&&&&     555555555555555555555     $$$$      &&&&&&&&&&",
"&&&&&&&&&&&&&     555555555555555555555     $$$$      &&&&&&&&&&",
"&&&&&&&&&&&&&     555555555555555555555     $$$$      &&&&&&&&&&",
"&&&&&&&&&&&&&     555555555555555555555     $$$$      &&&&&&&&&&",
"&&&&&&&&&&&&&     555555555555555555555     $$$$      &&&&&&&&&&",
"&&&&&&&&&&&&&     555555555555555555555     $$$$      &&&&&&&&&&",
"&&&&&&&&&&&&&     555555555555555555555     $$$$      &&&&&&&&&&",
"&&&&&&&&&&&&&     555555555555555555555     $$$$      &&&&&&&&&&",
"&&&&&&&&&&&&&     555555555555555555555     $$$$      &&&&&&&&&&",
"&&&&&&&&&&&&&     555555555555555555555     $$$$      &&&&&&&&&&",
"&&&&&&&&&&&&&     555555555555555555555     $$$$      &&&&&&&&&&",
"&&&&&&&&&&&&&     555555555555555555555     $$$$      &&&&&&&&&&",
"&&&&&&&&&&&&&     555555555555555555555     $$$$      &&&&&&&&&&",
"&&&&&&&&&&&&&     555555555555555555555               &&&&&&&&&&",
"&&&&&&&&&&&&&                                         &&&&&&&&&&",
"&&&&&&&&&&&&&                                         &&&&&&&&&&",
"&&&&&&&&&&&&&                                         &&&&&&&&&&",
"&&&&&&&&&&&&&                                         &&&&&&&&&&",
"&&&&&&&&&&&&&                                         &&&&&&&&&&",
"&&&&&&&&&&&&&&&&&&&&&&&&&&&&&&&&&&&&&&&&&&&&&&&&&&&&&&&&&&&&&&&&",
"&&&&&&&&&&&&&&&&&&&&&&&&&&&&&&&&&&&&&&&&&&&&&&&&&&&&&&&&&&&&&&&&",
"&&&&&&&&&&&&&&&&&&&&&&&&&&&&&&&&&&&&&&&&&&&&&&&&&&&&&&&&&&&&&&&&",
"&&&&&&&&&&&&&&&&&&&&&&&&&&&&&&&&&&&&&&&&&&&&&&&&&&&&&&&&&&&&&&&&",
"&&&&&&&&&&&&&&&&&&&&&&&&&&&&&&&&&&&&&&&&&&&&&&&&&&&&&&&&&&&&&&&&",
"&&&&&&&&&&&&&&&&&&&&&&&&&&&&&&&&&&&&&&&&&&&&&&&&&&&&&&&&&&&&&&&&"
};
