/* XPM */
static char *result[] = {
/* columns rows colors chars-per-pixel */
"64 64 235 2 ",
"   c black",
".  c #010000",
"X  c #010101",
"o  c #020000",
"O  c #030000",
"+  c #020101",
"@  c #030101",
"#  c #030202",
"$  c #040000",
"%  c #040101",
"&  c #050101",
"*  c #060101",
"=  c #070101",
"-  c #050303",
";  c #060404",
":  c #080101",
">  c #0A0101",
",  c #080202",
"<  c #090202",
"1  c #090303",
"2  c #0A0202",
"3  c #0B0202",
"4  c #0C0202",
"5  c #0D0202",
"6  c #0C0303",
"7  c #0D0303",
"8  c #0E0202",
"9  c #0E0303",
"0  c #0F0303",
"q  c #090505",
"w  c #090606",
"e  c #0A0606",
"r  c #0B0707",
"t  c #0F0404",
"y  c #100303",
"u  c #110303",
"i  c #130303",
"p  c #150303",
"a  c #110404",
"s  c #120404",
"d  c #130404",
"f  c #120505",
"g  c #140404",
"h  c #150404",
"j  c #140505",
"k  c #150505",
"l  c #160404",
"z  c #170404",
"x  c #170505",
"c  c #170606",
"v  c #160707",
"b  c #1A0303",
"n  c #1B0303",
"m  c #180404",
"M  c #190404",
"N  c #180505",
"B  c #190505",
"V  c #1A0404",
"C  c #1B0404",
"Z  c #1A0505",
"A  c #1B0505",
"S  c #190606",
"D  c #180707",
"F  c #1B0606",
"G  c #1C0404",
"H  c #1D0404",
"J  c #1C0505",
"K  c #1D0505",
"L  c #1E0404",
"P  c #1E0505",
"I  c #1F0505",
"U  c #1C0606",
"Y  c #1D0606",
"T  c #1C0707",
"R  c #1D0707",
"E  c #1E0606",
"W  c #1F0606",
"Q  c #1E0707",
"!  c #1F0707",
"~  c #100808",
"^  c #100A0A",
"/  c #170909",
"(  c #120C0C",
")  c #130C0C",
"_  c #140D0D",
"`  c #160E0E",
"'  c #180808",
"]  c #190909",
"[  c #1B0808",
"{  c #1D0808",
"}  c #1F0808",
"|  c #1F0909",
" . c #1E0B0B",
".. c #1F0B0B",
"X. c #1A0E0E",
"o. c #1C0C0C",
"O. c #1E0C0C",
"+. c #1E0D0D",
"@. c #1A1010",
"#. c #1A1111",
"$. c #1B1111",
"%. c #1D1212",
"&. c #1D1313",
"*. c #1E1313",
"=. c #1F1313",
"-. c #200505",
";. c #210505",
":. c #220505",
">. c #200606",
",. c #210606",
"<. c #200707",
"1. c #210707",
"2. c #220606",
"3. c #220707",
"4. c #230707",
"5. c #240606",
"6. c #250606",
"7. c #240707",
"8. c #250707",
"9. c #260606",
"0. c #260707",
"q. c #270707",
"w. c #280707",
"e. c #290707",
"r. c #2E0707",
"t. c #200808",
"y. c #200909",
"u. c #210909",
"i. c #220808",
"p. c #220909",
"a. c #230909",
"s. c #200A0A",
"d. c #210A0A",
"f. c #200B0B",
"g. c #210B0B",
"h. c #220A0A",
"j. c #230A0A",
"k. c #220B0B",
"l. c #230B0B",
"z. c #240808",
"x. c #250808",
"c. c #240909",
"v. c #250909",
"b. c #260808",
"n. c #270808",
"m. c #260909",
"M. c #270909",
"N. c #240A0A",
"B. c #250A0A",
"V. c #240B0B",
"C. c #250B0B",
"Z. c #260A0A",
"A. c #270A0A",
"S. c #260B0B",
"D. c #270B0B",
"F. c #210D0D",
"G. c #220C0C",
"H. c #230C0C",
"J. c #230D0D",
"K. c #210F0F",
"L. c #220E0E",
"P. c #240C0C",
"I. c #250C0C",
"U. c #250D0D",
"Y. c #260C0C",
"T. c #270C0C",
"R. c #260D0D",
"E. c #270D0D",
"W. c #260E0E",
"Q. c #270E0E",
"!. c #280808",
"~. c #290808",
"^. c #280909",
"/. c #290909",
"(. c #2A0808",
"). c #2B0808",
"_. c #2A0909",
"`. c #2B0909",
"'. c #290A0A",
"]. c #280B0B",
"[. c #290B0B",
"{. c #2A0A0A",
"}. c #2B0A0A",
"|. c #2A0B0B",
" X c #2B0B0B",
".X c #2C0808",
"XX c #2C0909",
"oX c #2E0909",
"OX c #2C0A0A",
"+X c #2C0B0B",
"@X c #2D0B0B",
"#X c #280C0C",
"$X c #290C0C",
"%X c #280D0D",
"&X c #290D0D",
"*X c #2A0D0D",
"=X c #2B0D0D",
"-X c #280E0E",
";X c #290E0E",
":X c #280F0F",
">X c #2A0E0E",
",X c #2B0E0E",
"<X c #2C0C0C",
"1X c #2D0D0D",
"2X c #2E0D0D",
"3X c #2C0E0E",
"4X c #310808",
"5X c #300909",
"6X c #330909",
"7X c #310A0A",
"8X c #330A0A",
"9X c #320B0B",
"0X c #300C0C",
"qX c #310D0D",
"wX c #211010",
"eX c #201313",
"rX c #241010",
"tX c #251111",
"yX c #271111",
"uX c #251313",
"iX c #261212",
"pX c #271313",
"aX c #201414",
"sX c #221414",
"dX c #231414",
"fX c #241414",
"gX c #251414",
"hX c #261414",
"jX c #271414",
"kX c #291010",
"lX c #281313",
"zX c #2B1313",
"xX c #281414",
"cX c #F4F095",
"vX c None",
/* pixels */
"vXvXvXvXvXvXvXvXvXvXvXvXvXvXvXvXvXvXvXvXvXvXvXvXvXvXvXvXvXvXvXvXvXvXvXvXvXvXvXvXvXvXvXvXvXvXvXvXvXvXvXvXvXvXvXvXvXvXvXvXvXvXvXvX",
"vXvXvXvXvXvXvXvXvXvXvXvXvXvXvXvXvXvXvXvXvXvXvXvXvXvXvXvXvXvXvXvXvXvXvXvXvXvXvXvXvXvXvXvXvXvXvXvXvXvXvXvXvXvXvXvXvXvXvXvXvXvXvXvX",
"vXvXvXvXvXvXvXvXvXvXvXvXvXvXvXvXvXvXvXvXvXvXvXvXvXvXvXvXvXvXvXvXvXvXvXvXvXvXvXvXvXvXvXvXvXvXvXvXvXvXvXvXvXvXvXvXvXvXvXvXvXvXvXvX",
"vXvXvXvXvXvXvXvXvXvXvXvXvXvX                  vXvXvXvXvXvXvXvXvXvXvXvX        vXvXvXvXvXvXvXvXvXvXvXvXvXvXvXvXvXvXvXvXvXvXvXvXvX",
"vXvXvXvXvXvXvXvXvXvXvXvX                        vXvXvXvXvXvXvXvX                  vXvXvXvXvXvXvXvXvXvXvXvXvXvXvXvXvXvXvXvXvXvXvX",
"vXvXvXvXvXvXvXvXvXvXvX        cXcXcXcXcXcXcX      vXvXvXvXvXvX          cXcX        vXvXvXvXvXvXvXvXvXvXvXvXvXvXvXvXvXvXvXvXvXvX",
"vXvXvXvXvXvXvXvXvXvXvX    cXcXcXcX    cXcXcXcX      vXvXvXvXvX    cXcXcX  cXcXcX      vXvXvXvXvXvXvXvXvXvXvXvXvXvXvXvXvXvXvXvXvX",
"vXvXvXvXvXvXvXvXvXvX      cXcXcX      cXcXcXcXcX    vXvXvXvXvX    cXcX      cXcXcX      vXvXvXvXvXvXvXvXvXvXvXvXvXvXvXvXvXvXvXvX",
"vXvXvXvXvXvXvXvXvXvX    cXcXcXcX      cXcXcXcXcX    vXvXvXvXvX    cXcX      cXcXcXcX    vXvXvXvXvXvXvXvXvXvXvXvXvXvXvXvXvXvXvXvX",
"vXvXvXvXvXvXvXvXvXvX    cXcXcXcX      cXcXcXcXcX      vXvXvXvX    cXcX      cXcXcXcX    vXvXvXvXvXvXvXvXvXvXvXvXvXvXvXvXvXvXvXvX",
"vXvXvXvXvXvXvXvXvXvX    cXcXcXcX      cXcXcXcXcXcX    vXvX        cXcX      cXcXcXcX    vXvXvXvXvXvXvXvXvXvXvXvXvXvXvXvXvXvXvXvX",
"vXvXvXvXvXvXvXvXvXvX      cXcXcX      cXcXcXcXcXcX    vXvX        cXcX      cXcXcXcX    vXvXvXvXvXvXvXvXvXvXvXvXvXvXvXvXvXvXvXvX",
"vXvXvXvXvXvXvXvXvXvXvX    cXcXcX      cXcXcXcXcX      vXvX          cXcXcXcXcXcXcX      vXvXvXvXvXvXvXvXvXvXvXvXvXvXvXvXvXvXvXvX",
"vXvXvXvXvXvXvXvXvXvXvX    cXcXcX    cXcXcXcX        vXvX              cXcXcX            vXvXvXvXvXvXvXvXvXvXvXvXvXvXvXvXvXvXvXvX",
"vXvXvXvXvXvX  vXvXvXvX        cXcXcXcX            vX                                vXvX            vXvXvXvXvXvXvXvXvXvXvXvXvXvX",
"vXvXvXvXvX      vXvXvXvX          cX          vXvX        vXvXvXvXvX          vXvXvXvX                vXvXvXvXvXvXvXvXvXvXvXvXvX",
"vXvXvXvXvXvX      vXvXvXvXvX                vXvX      vXvXvXvXvXvXvXvX        vXvXvXvX    cXcXcXcX      vXvXvXvXvXvXvXvXvXvXvXvX",
"vXvXvXvXvXvXvX      vXvXvXvXvXvX                    vXvXvXvXvX                vXvXvX      cX    cXcX      vXvXvXvXvXvXvXvXvXvXvX",
"vXvXvXvXvXvXvXvX    vXvXvXvXvX                      vXvX                      vXvXvX    cXcX    cXcXcX    vXvXvXvXvXvXvXvXvXvXvX",
"vXvXvXvXvXvXvXvX    vXvXvXvX                                                vXvXvXvX    cXcX    cXcXcX    vXvXvXvXvXvXvXvXvXvXvX",
"vXvXvXvXvXvXvXvX      vXvX                                                        vX    cXcX    cXcXcX    vXvXvXvXvXvXvXvXvXvXvX",
"vXvXvXvXvXvXvXvXvX      vX        vXvX                            !. X                  cXcXcXcXcXcXcX    vXvXvXvXvXvXvXvXvXvXvX",
"vXvXvXvXvXvX                      vXvX        D                     M.^.{.OXvXvXvX            cXcXcXcX    vXvXvXvXvXvXvXvXvXvXvX",
"vXvXvXvXvX                          vXvX      S             ^.M.      m.M.^.{.vX                cX        vXvXvXvXvXvXvXvXvXvXvX",
"vXvXvXvXvX        vXvX      vXvX    vX        R             '.                          vXvX            vXvXvXvXvXvXvXvXvXvXvXvX",
"vXvXvXvXvX        vXvXvX    vXvX              -.          }.                        vXvXvXvXvXvXvXvXvXvXvXvXvXvXvXvXvXvXvXvXvXvX",
"vXvXvXvXvX          vXvX    vXvX              6.6.                                    vXvXvXvXvXvXvXvXvXvXvXvXvXvXvXvXvXvXvXvXvX",
"vXvXvXvXvX    vX    vXvX      vX            n._./.                      ^./._.`.          vXvXvXvXvXvXvXvXvXvXvXvXvXvXvXvXvXvXvX",
"vXvXvXvXvX    vX      vXvX                _._.}.+X                      M.Z.Z.      vX          vXvXvXvXvXvXvXvXvXvXvXvXvXvXvXvX",
"vXvXvXvXvX      vX      vXvX                   X@X9X                      a.      M.              vXvXvXvXvXvXvXvXvXvXvXvXvXvXvX",
"vXvXvXvXvXvX    vXvX    vXvXvX                                  7X6X8X          u.j.    vXvXvXvXvXvXvXvXvXvXvXvXvXvXvXvXvXvXvXvX",
"vXvXvXvXvX      vXvX    vXvXvX                                    4Xr.e.        h.d.      vXvXvXvXvXvXvXvXvXvXvXvXvXvXvXvXvXvXvX",
"vXvXvXvX      vXvXvX    R.vXvX                    +X0XqX            w.4.      /.D.N.            vXvXvXvXvXvXvXvXvXvXvXvXvXvXvXvX",
"vXvXvX      vXvXvXvX      U.vX                        2X@X          7.-.        |.].              vXvXvXvXvXvXvXvXvXvXvXvXvXvXvX",
"vXvX      vXvXvXvXvXvX    I.vX    1X$XB.                $X                                              vXvXvXvXvXvXvXvXvXvXvXvX",
"vXvXvXvXvXvXvXvXvXvXvXG.V.D.vX    <X[.v.t.                                E F         D.S.S.                vXvXvXvXvXvXvXvXvXvX",
"vXvXvXvXvXvXvXvXvXvXvXh.N.[.       X{.A.a.                                              C.C.l.k.d.l.D.        vXvXvXvXvXvXvXvXvX",
"vXvXvXvXvXvXvXvXvXvXvXvX$X        $X#XS.      h.A.                              Y | s.k.V.V.l.d.f.s.h.Y.|.      vXvXvXvXvXvXvXvX",
"vXvXvXvXvXvXvXvXvXvXvXvX          Y.C.V.    s.g.I.              [ [                         k.k.g.s.s.k.I.#X      vXvXvXvXvXvXvX",
"vXvXvXvXvXvXvXvXvXvXvXvXvXvXvX      G.k.     ...g.V.            s.| } }                         V.k.    l.C.        vXvXvXvXvXvX",
"vXvXvXvXvXvXvXvXvXvXvXvXvXvXvXvX    f.f.       .H.J.      Q.          u.              3.p.                V.    vXvXvXvXvXvXvXvX",
"vXvXvXvXvXvXvXvXvXvXvXvXvXvXvXvX      f.g.    s.G.V.U.    :X#Xc.                        b.c.u.        I.T.Y.      vXvXvXvXvXvXvX",
"vXvXvXvXvXvXvXvXvXvXvXvXvXvXvXvXvX    s.u.      f.k.P.      j.>.Q                 5.    ).n.z.    k.l.E.,X,X&X        vXvXvXvXvX",
"vXvXvXvXvXvXvXvXvXvXvXvXvXvXvXvXvX      t.}       y.k.k.      K H     G J     L ;.q.    5XXX~.    S.Z.%X=X=X3X;X        vXvXvXvX",
"vXvXvXvXvXvXvXvXvXvXvXvXvXvXvXvXvX        ! Y       t.} {             J n       ,.^.      5X`.        $X*X>X,X&XvXvX    vXvXvXvX",
"vXvXvXvXvXvXvXvXvXvXvXvXvXvXvXvXvX        I K U     W Q Q <.        ! P         1.b.(.    oX.XXX          E.W.-XvXvX      vXvXvX",
"vXvXvXvXvXvXvXvXvXvXvXvXvXvXvXvXvX          b A K E Q Q E >.        ,.W         L 8.q.    `.`.XXXX_.        J.L.vXvXvX      vXvX",
"vXvXvXvXvXvXvXvXvXvXvXvXvXvXvXvX      kX    z V Z U R Y W E         E >.P H     M <.6.      ).`._.`.^.A.    G.F.vXvXvXvXvXvXvXvX",
"vXvXvXvXvXvXvXvXvXvXvXvXvXvXvXvX    zXyX    l A T Y K Y E       P J J U G       J U >.8.          /./.b.      vXvXvXvXvXvXvXvXvX",
"vXvXvXvXvXvXvXvXvXvXvXvXvXvXvXvX    lXiX    k B J E P Y       Y Y A m N M     2.I E E 5.b.          q.7.1.    vXvXvXvXvXvXvXvXvX",
"vXvXvXvXvXvXvXvXvXvXvXvXvXvXvXvX    lXpX    j k N J E P     U Y Y U Z N V       7.i.1.>.0.!._.!.~.!.9.:.P     vXvXvXvXvXvXvXvXvX",
"vXvXvXvXvXvXvXvXvXvXvXvXvXvXvXvX      lX    o.D c m K Y     Y W -.K K E ! 1.    0.b.4.I W 5.8.0.7.8.3.W U         vXvXvXvXvXvXvX",
"vXvXvXvXvXvXvXvXvXvXvXvXvXvXvXvXvXvXjXpXlXiXrXO.' j l m     I W E K I >.4.4.        x.W V z B C J E W Y Z A           vXvXvXvXvX",
"vXvXvXvXvXvXvXvXvXvXvXvXvXvXvXvXvXvXfXjXxXlXlXtX+.v y i       E Y A P 1.8.b.n.        ! k 5 > 5 d x x B A E             vXvXvXvX",
"vXvXvXvXvXvXvXvXvXvXvXvXvXvXvXvXvX*.eXdXhXjXpXpXK.] f 0 i     >.Y U E 4.m./.!.0.x.        4 % o * 2 9 s p Z     Q T l 8 * vXvXvX",
"vXvXvXvXvXvXvXvXvXvXvXvXvXvXvXvX) #.*.=.sXdXgXuXwX/ t 6 8           ! 4.n.^.!.x.i.} Q         .   . O * 4 u       h a 3 $ vXvXvX",
"vXvXvXvXvXvXvXvXvXvXvXvXvXvX  # r _ $.*.*.aXeXeXX.~ 1 * : 8             4.b.m.i.! R F B               . & 3 y     a 0 , O   vXvX",
"vXvXvXvXvXvXvXvXvXvXvXvX        # r _ #.%.&.%.@.( q + . . * 5 s h         <.t.R F S N h a 3 %           % < 9       7 = o   vXvX",
"vXvXvXvXvXvXvXvXvXvXvX            @ w ^ _ ` _ ^ w #       o = 2 9 u d d j h h g s d a 0 4 = O           o * 2 7       % . vXvXvX",
"vXvXvXvXvXvXvXvX                vX  X - q e w ; +           o & = < < 2 2 : = : : < < = & O               o & = ,       vXvXvXvX",
"vXvXvXvXvXvXvX                vXvXvX    . X X       vXvX    vXvXvXo O O vXvX  . . o O o .   vXvX            . O O o .     vXvXvX",
"vXvXvXvXvXvXvXvX          vXvXvXvXvXvXvXvXvXvXvX  vXvXvXvXvXvXvXvXvX  vXvXvXvX      vXvXvXvXvXvXvXvXvXvX                  vXvXvX",
"vXvXvXvXvXvXvXvXvXvXvXvXvXvXvXvXvXvXvXvXvXvXvXvXvXvXvXvXvXvXvXvXvXvXvXvXvXvXvXvX  vXvXvXvXvXvXvXvXvXvXvXvXvXvX          vXvXvXvX",
"vXvXvXvXvXvXvXvXvXvXvXvXvXvXvXvXvXvXvXvXvXvXvXvXvXvXvXvXvXvXvXvXvXvXvXvXvXvXvXvXvXvXvXvXvXvXvXvXvXvXvXvXvXvXvXvXvXvXvXvXvXvXvXvX"
};
