/* XPM */
static char *result[] = {
/* columns rows colors chars-per-pixel */
"64 64 105 2 ",
"   c None",
".  c #006D00",
"X  c #006E00",
"o  c #006F00",
"O  c #007000",
"+  c #007100",
"@  c #007200",
"#  c #007300",
"$  c #007400",
"%  c #007500",
"&  c #007600",
"*  c #007700",
"=  c #007800",
"-  c #007900",
";  c #007A00",
":  c #007B00",
">  c #007C00",
",  c #007D00",
"<  c #007E00",
"1  c #007F00",
"2  c #008000",
"3  c #008100",
"4  c #008200",
"5  c #008300",
"6  c #008400",
"7  c #008500",
"8  c #008600",
"9  c #008700",
"0  c #008800",
"q  c #008900",
"w  c #008A00",
"e  c #008B00",
"r  c #008C00",
"t  c #008D00",
"y  c #008E00",
"u  c #008F00",
"i  c #009000",
"p  c #009100",
"a  c #009200",
"s  c #009300",
"d  c #009400",
"f  c #009500",
"g  c #009600",
"h  c #009700",
"j  c #009800",
"k  c #009900",
"l  c #009A00",
"z  c #009B00",
"x  c #009C00",
"c  c #009D00",
"v  c #009E00",
"b  c #009F00",
"n  c #00A000",
"m  c #00A100",
"M  c #00A200",
"N  c #00A300",
"B  c #00A400",
"V  c #00A500",
"C  c #00A600",
"Z  c #00A700",
"A  c #00A800",
"S  c #00A900",
"D  c #00AA00",
"F  c #00AB00",
"G  c #00AC00",
"H  c #00AD00",
"J  c #00AE00",
"K  c #00AF00",
"L  c #00B000",
"P  c #00B100",
"I  c #00B200",
"U  c #00B300",
"Y  c #00B400",
"T  c #00B500",
"R  c #00B600",
"E  c #00B700",
"W  c #00B800",
"Q  c #00B900",
"!  c #00BA00",
"~  c #00BB00",
"^  c #00BC00",
"/  c #00BD00",
"(  c #00BE00",
")  c #00BF00",
"_  c #00C000",
"`  c #00C100",
"'  c #00C200",
"]  c #00C300",
"[  c #00C400",
"{  c #00C500",
"}  c #00C600",
"|  c #00C700",
" . c #00C800",
".. c #00C900",
"X. c #00CA00",
"o. c #00CB00",
"O. c #00CC00",
"+. c #00CD00",
"@. c #00CE00",
"#. c #00CF00",
"$. c #00D100",
"%. c #00D200",
"&. c #00D400",
"*. c #00D500",
"=. c None",
/* pixels */
"=.=.=.=.=.=.=.=.=.=.=.=.=.=.=.=.=.=.=.=.=.=.=.=.=.=.=.=.=.=.=.=.=.=.=.=.=.=.=.=.=.=.=.=.=.=.=.=.=.=.=.=.=.=.=.=.=.=.=.=.=.=.=.=.",
"=.=.=.=.=.=.=.=.=.=.=.=.=.=.=.=.=.=.=.=.=.=.=.=.=.=.=.=.=.=.=.=.=.=.=.=.b z =.=.=.=.=.=.=.=.=.=.=.=.=.=.=.=.=.=.=.=.=.=.=.=.=.=.",
"=.=.=.=.=.=.=.=.=.=.=.=.=.=.=.=.=.=.=.=.=.=.=.=.=.=.=.=.=.=.=.=.=.=.=.g C r =.=.=.=.=.=.=.=.=.=.=.=.=.=.=.P z =.=.=.=.=.=.=.=.=.",
"=.=.=.=.=.=.=.=.=.=.=.=.=.=.=.=.=.=.=.=.=.=.=.=.=.=.=.=.=.=.=.=.=.=.=.T s =.=.=.=.=.=.=.=.=.=.=.=.=.=.=.=.L , =.=.=.=.=.=.=.=.=.",
"=.=.=.=.=.=.=.c =.=.=.=.=.=.=.=.=.a P =.=.=.=.=.=.=.=.=.=.=.=.w =.=.g N =.=.a a =.=.=.=.=.=.=.=.=.=.=.=.D i =.=.=.=.=.=.=.=.=.=.",
"=.=.=.=.=.=.=.L =.=.=.=.=.=.=.=.=.z F =.=.=.=.=.=.=.=.=.=.=.d 9 =.=.j d =.=.n u =.=.=.=.=.=.=.=.=.=.=.T Z =.=.=.=.=.=.=.=.=.=.=.",
"=.=.=.=.=.=.=.I =.=.=.=.=.=.=.=.=.B 8 =.=.=.=.=.=.=.=.=.=.=.g 8 =.=.t f =.=.A C =.=.=.=.=.=.=.=.=.=.=.I L =.=.=.=.=.=.=.=.=.=.=.",
"=.=.=.=.=.=.=.L =.=.=.=.=.=.=.=.=.N % =.=.=.=.U v =.=.=.=.z y =.=.% a =.=.I b =.=.=.=.=.=.=.=.=.=.=.=.Y A =.=.=.=.=.=.=.=.=.=.=.",
"=.=.=.=.=.=.U 9 =.=.=.=.=.=.=.=.=.q =.=.=.=.s J =.=.=.=.=.j 7 =.=.w n =.=.v h =.=.=.=.=.=.=.m f =.=.=.Y 1 =.=.=.=.: g =.=.=.=.=.",
"=.=.=.=.=.=.R > =.=.=.L n =.=.=.i X =.=.=.=.Z m =.n Y =.=.x 0 =.=.=.=.=.=.b x =.=.=.=.=.=.=.J C =.=.=.c O =.=.=.=.i 8 =.=.=.=.=.",
"=.=.=.=.=.=.C $ =.=.=.W V h =.=.8 . =.=.=.=.T =.=.E R =.9 w =.=.=.=.=.=.h V f 2 =.=.=.=.=.=.L M =.=.=.6 =.=.=.=.u M =.=.=.=.=.=.",
"=.=.=.=.=.=.j X =.=.=._ A =.=.=..   =.=.=./ d =.=.~ x =.=.6 =.=.=.=.=.=.d C 2 t =.=.=.=.=.=.I V =.=.=.  =.=.=.=.n r =.=.=.=.=.=.",
"=.=.=.=.=.=.i . =.=.=.W v =.=.=.    =.=.K M i =.=.j f =.=.8 =.=.=.=.=.=.z v t =.=.x z =.=.=.B w =.=.=.=.=.=.=.=.D 3 =.=.=.=.=.=.",
"=.=.=.=.=.=.8 . =.=.=.S g =.=.=.=.=.=.=.W z y =.=.f r =.=.m N =.=.=.=.=.i u w =.=.Y p =.=.=.a 8 =.8 E =.=.=.=.=.P = =.=.=.=.=.=.",
"=.=.=.=.=.=..   =.=.=.D 8 =.K Q =.=.=.=.D 9 : =.=.n 2 =.=.I c =.=.=.=.=.r u e y g f =.=.=.=.2 o =./  .=.=.l =.=.q X =.=.=.=.=.=.",
"=.=.=.=.=.=.=.=.=.=.=.m * =.E K =.=.=.=.g , =.=.=.i < =.=.Y 6 m C =.=.=.9 # q L m 1 =.U d =.w o =.[ M =.=.` K =.o   =.=.=.=.=.=.",
"=.=.=.=.=.=.=.=.=.=.=.z & x ! M =.=.=.=.6 5 =.=.=.z 1 =.=.v * Q H =.=.j $ 3 2 =.e + D ' n =.7 o x W =.=.K _ =.=.=.=.=.=.=.=.=.=.",
"=.=.=.=.=.=.=.=.=.=.=.h o B g =.f k =.=.4 X =.=.=.p - =.=.p s ^ q =.=.7 o 1 p =.= X p F =.=.=.=.B P =.=.f b =.=.=.=.=.=.=.=.=.=.",
"=.=.=.=.=.=.=.=.U P =.q O u s =.D t =.H X =.$ d =..   =.=.5 M P - =.=.> > w a =.$ . 4 x =.=.=.=.h g =.=.z =.=.=.=.=.=.=.=.=.=.=.",
"=.=.=.=.=.=.=.=.L 8 =.> O d k =.G =.=.0 . =.t K s . + B c X =.x 7 =.s 1 =.$.y =.X . 4 b =.=.Y A 5 t =.u j =.=.=.=.=.=.=.=.=.=.=.",
"=.=.=.=.=.=.=.W Q =.=.  O w =.F u =.=.< . =.V U =.=.=.R 2 X =.v # =.d @ =._ 4 =.=.e h =.=.=.O._ 4 s =.7 w =.=.=.=.=.=.=.=.=.=.=.",
"=.=.=.=.=.=.=._ c =.=.. 2 5 =.g = =.=.>   1 Y m =.=.=.^ 1 =.=.< X m x =.S a 9 L =.P W =.=.=.I d 1 < =.7 % =.=.=.=.=.=.=.=.=.=.=.",
"=.=.=.=.=.=.=.! 4 =.=.X w s n q o =.=., h A I w =.=.=.C ; =.=.  & S K =.v 9 =. .=.v s =.=.=.l 7 n q =.=.  =.=.=.=.=.=.=.=.=.=.=.",
"=.=.=.=.=.=.=.p 9 =.=.=.=.H ~ 3 =.=.=.$ ( E Y 0 =.=.=.9 =.=.    =.X.G =.G d s P =.z s =.=.=.p f  .S =.=.=.=.=.=.=.=.=.=.=.=.=.=.",
"=.=.=.=.=.=.=.a u =.=.=.=.#./ r =.=.=.# l 0 q t =.=.m 0 =.=.    d | z =.a 8 1 l = < =.=.=.n 5 % I P =.=.=.=.E W =.=.=.=.=.=.=.=.",
"=.=.=.=.=.=.=.7 : =.=.=.=.&.f , =.=.=.=.p 3 6 , =.=.q i =.=.  O =.F 2 =.> & r 7 =.q =.=.=.M 4 + g =.=.=.=.=.K { =.=.=.=.=.=.=.=.",
"=.=.=.=.=.=.=.=.=.=.~ ` =.{ t % =.l V =.j - .   =.=.k ^ =.=   =.=.k 8 =.: - u u =.=.=.=.q | p < f =.=.=.=.=.S K =.=.=.=.=.=.=.=.",
"=.=.=.=.=.=.=.=.=.=.$.P =.m y % =.! ] =.p =.    =.y I O.=.E #.=.- , , =.; h 5 =.=.=.=.w = ~ k 3 0 =.=.=.=.=.s p =.=.=.=.=.=.=.=.",
"=.=.=.=.=.=.=.=.=.^ %.=.=.B *   < ' Q J a =.=.o a h b J =.K ( =.g y o =.C | t 5 m =.=.H = s 8 h A =.=.=.=.=.y 8 =.=.=.=.=.=.=.=.",
"=.=.=.=.=.=.=.=.=.=.{ =.=.l =.=.=.} C =.$ # O =.V 0 a 5 > H =.=./ 7 =.=.t S * M ' =.R ) =.r > ( _ =.=.V =.=.7 * =.=.=.=.=.=.=.=.",
"=.=.=.=.=.=.=.=.=.=.v =.=.k =.=.=.] n =.. d c p ` v q X O j b =.E =.> 6 8 i =.G R =.Y V =.=.=.x Y =.=.G =.=..   =.=.=.=.=.=.=.=.",
"=.=.=.=.=.=.=.=.=.N y =.=.j =.=.=.y 3 =.+ T ^ =.=.^ g # O C 0 T V =.C T 0 + =.b B =.j u =.=.=.7 M =.J J =.=.=.=.=.=.=./ / =.=.=.",
"=.=.=.=.=.=.=.=.=.m u =.=.9 =.=.p w =.=.y  .=.=...W =.=.=.e 7 f f =.F K 8 =.=.s 9 =.i @ =.=.=., 8 =.n d =.=.=.=.=.=.R #.W =.=.=.",
"=.=.=.=.=.=.=.=.=.m 1 =.=.6 =.=.p u =.=.Y { =.=.A Z =.=.=.w : f 7 =.M f * =.=.l t =.9 $ =.=.=., , =.h j =.=.=.=.=.=.B M =.=.=.=.",
"=.=.=.=.=.L ! =.=.Z 7 =.=.> @ =.p w =.=.x W =.=.8 y =.=.=.6 =.v = 9 f 9 S k =.8 7 =.q $ =.h =.5 > =.f e =.=.=.=.=.=.b p =.=.=.=.",
"=.=.=.=.=.( Y =.=.C O =.=.  1 ( V w =.=.y k =.=.u q =.=.=., =.t 3 =.f t { B - : =.=.2   B U =.=.=.=.t o =.=.=.=.=.=.z z =.=.=.=.",
"=.=.=.=.=.E T =.=.=.    =.+ | o.j , =.=.g Z =.6 q , =.q a w =.8 & =.l 4 V k % = e =.=.X c X.=.=.=.=.o   =.=.=.=.=.=.5 r =.=.=.=.",
"=.=.=.=.=.B Z =.=.=.  X U k =._ u > =.=.p m =.U Y @ =.K _ x =.. O =.9 = a z =.o o =.=.=.n m =.=.=.=.=.=.=.=.=.=.=.=.w u =.=.=.=.",
"=.=.=.=.=.c q =.=.=.  3 +.K =.A #   =.=.y j =.' U + =.( ' g =.=.=.=.> =.s 8 =.=.  =.=.=.l h =.=.=.=.=.=.=.=.=.=.=.=.$ r =.=.=.=.",
"=.=.=.=.t D =.=.=.=.X e ) W =.k =.=.=.=.0 w =.I z =.=.y S # =.=.[ E O O , 6 =.=.=.=.=.=.v r =.=.=.=.=.K R =.=.=.=.=.  . =.=.=.=.",
"=.=.=.=.=.b =.=.=.=.=.=.b e =.Z =.=.=.=.=.4 2 x e =.=.d G =.=.=./  .=.: 5 =.=.=.=.=.=.0 3 7 =.=.=.=.=./ ~ =.=.=.=.=.    =.=.=.=.",
"=.=.=.=.=.i =.=.=.=.=.=.x : =.z =.=.=.=.=.I p Y D =.=.r C =.=.=.M G =.=.3 =.=.=.=.A =.} j > =.=.=.=.=.B g =.=.=.=.=.=.=.=.=.=.=.",
"=.=.=.=.=.7 =.=.=.=.=.=.s p =.5 =.=.N M o.H =.m - =.& d =.=.=.=.k N =.=.q =.=.=.=.' =.F C =.=.] =.=.=.m =.=.=.=.=.=.=.=.=.=.=.=.",
"=.=.=.=.=.> =.=.) ~ =.=.v 7 =.  =.=.! y  .G =.y O =.w d =.=.=.c v M =.=.. =.=.=.L A =.s =.=.=.| =.=.y p =.=.=.=.=.=.=.=.=.=.=.=.",
"=.=.=.=.=.  O =.[ L =.=.c 3 =.=.=.=.S f W t =., O =.% * =.=.*.^ h s =.=.=.=.=.=.z b =.h =.=.M n =.=.8 & =.=.=.R =.=.=.=.=.=.=.=.",
"=.=.=.=.=.=.=.M ~ =.=.=.r X =.=.=.J z =.c u =.> t =.  * n =.E I s n =.=.=.=.=.=.z < b 3 =.=.g N =.=..   =.=.=.o.=.=.=.=.=.=.=.=.",
"=.=.=.=.=.=.=.L C =.=.=.X   =.=.=.A u w h 0 =.: O =.=.I R 7 p 8 n B =.=.E R =.=.h V ] N =.=.S j =.=.=.=.=.=.J ! =.=.=.=.=.=.=.=.",
"=.=.=.=.=.=.=.N k =.=.=.=.=.=.L J F 9 % w X =.  % =.=.Y T , < N 9 9 =.=.+...=.$ 0 =.) G =.=.b p =.=.=.=.=.Z A =.=.=.=.=.=.=.=.=.",
"=.=.=.=.=.=.=.n 4 =.=.=.=.=.=.X.( A f =.8 . =.. 8 =.=.B y 8 f =.6 6 =.=.P H =.o w =.x J =.=.g g =.=.=.=.=.u f =.=.=.=.=.=.=.=.=.",
"=.=.=.=.=.=.=.u a =.=.=.=.=.S F =.l 3 =.=.=.=.. : =.=.j h + 0 =.< , =.=.m v =.. 5 =.k b =.=.q M =.Y ^ =.=.s w =.=.=.=.=.=.=.=.=.",
"=.=.=.=.=.=.=.r u =.=.=.=.=.h h =.0 9 =.=.=.=.=.. =.=.u N = , =.X . =.=.v i =.    =.f q =.=.  X =.~ / =.=.h w =.=.=.=.=.=.=.=.=.",
"=.=.=.=.=.=.=.d r =.=.I G =.y z =.< < =.B @.=.=.=.=.=.0 d 0 X =.    =.=.J k =.=.=.=.7 7 =.=.    =.v V =.q a =.=.=.=.V ^ =.=.=.=.",
"=.=.=.=.=.=.=.< , =.L ^ =.=.w 9 =.=.=.=.~ +.=.=.=.=.=.w a =.=.=.=.=.=.=.F j =.=.=.=.6 t =.=.=.=.=.v p =.9 6 =.=.=.=.Z o.=.=.=.=.",
"=.=.=.=.=.=.=.=.=.=.P G =.=.7 9 =.=.=.=.x i =.=.=.=.=.$ t =.=.=.=.=.=.=.M u =.=.=.=.q ~ =.=.=.=.=.8 s =.e o =.=.=.=.M Y =.=.=.=.",
"=.=.=.=.=.=.=.=.=.=.k n =.=.q q =.=.=.=.0 s =.=.=.=.=.# t =.=.=.=.=.=.=.4 : =.=.=.=.=.R =.=.=.=.=.t i =.X   =.=.=.=.D q =.=.=.=.",
"=.=.=.=.=.=.=.=.=.7 r =.=.=.X X =.=.=.=.e =.=.=.=.=.=.  X =.=.=.=.=.=.=.O O =.=.=.=.=.N =.=.=.=.=.r 9 =.=.=.=.=.=.=.C $ =.=.=.=.",
"=.=.=.=.=.=.=.=.=.y x =.=.=.    =.=.=.8 p =.=.=.=.=.=.    =.=.=.=.=.=.=.    =.=.=.=.=.S =.=.=.=.=.X . =.=.=.=.=.=.Z s =.=.=.=.=.",
"=.=.=.=.=.=.=.=.=.q @ =.=.=.=.=.=.=.=.r r =.=.=.=.=.=.=.=.=.=.=.=.=.=.=.=.=.=.=.=.=.=.x =.=.=.=.=.    =.=.=.=.=.=.V + =.=.=.=.=.",
"=.=.=.=.=.=.=.=.=.X   =.=.=.=.=.=.=.=.7 % =.=.=.=.=.=.=.=.=.=.=.=.=.=.=.=.=.=.=.=.=.=.j =.=.=.=.=.=.=.=.=.=.=.=.=.9   =.=.=.=.=.",
"=.=.=.=.=.=.=.=.=.=.=.=.=.=.=.=.=.=.=..   =.=.=.=.=.=.=.=.=.=.=.=.=.=.=.=.=.=.=.=.=.=.6 =.=.=.=.=.=.=.=.=.=.=.=.=..   =.=.=.=.=.",
"=.=.=.=.=.=.=.=.=.=.=.=.=.=.=.=.=.=.=.    =.=.=.=.=.=.=.=.=.=.=.=.=.=.=.=.=.=.=.=.=.=.; =.=.=.=.=.=.=.=.=.=.=.=.=.=.=.=.=.=.=.=.",
"=.=.=.=.=.=.=.=.=.=.=.=.=.=.=.=.=.=.=.=.=.=.=.=.=.=.=.=.=.=.=.=.=.=.=.=.=.=.=.=.=.=.=., e =.=.=.=.=.=.=.=.=.=.=.=.=.=.=.=.=.=.=.",
"=.=.=.=.=.=.=.=.=.=.=.=.=.=.=.=.=.=.=.=.=.=.=.=.=.=.=.=.=.=.=.=.=.=.=.=.=.=.=.=.=.=.=.. . =.=.=.=.=.=.=.=.=.=.=.=.=.=.=.=.=.=.=.",
"=.=.=.=.=.=.=.=.=.=.=.=.=.=.=.=.=.=.=.=.=.=.=.=.=.=.=.=.=.=.=.=.=.=.=.=.=.=.=.=.=.=.=.=.  =.=.=.=.=.=.=.=.=.=.=.=.=.=.=.=.=.=.=."
};
