/* XPM */
static char *f34b3e55e48d4ee3832536efe9c6d24dMHNcfg6Sfx6yOFJi[] = {
/* columns rows colors chars-per-pixel */
"64 64 2 1 ",
"  c None",
". c black",
/* pixels */
"                                                                ",
"                                                                ",
"                                                                ",
"                                                                ",
"                           ..........                           ",
"                       ..................                       ",
"                     ......................                     ",
"                   ..........................                   ",
"                 ..............................                 ",
"                ................................                ",
"              ....................................              ",
"             ......................................             ",
"            ........................................            ",
"           ..........................................           ",
"          ............................................          ",
"          ............................................          ",
"         ........    ......................    ........         ",
"        .........      ..................      .........        ",
"        .........       ..            ..       .........        ",
"       .........                                .........       ",
"       .........                                .........       ",
"      ...........                              ...........      ",
"      ...........                              ...........      ",
"     ............                              ............     ",
"     ...........                                ...........     ",
"     ...........                                ...........     ",
"     ..........                                  ..........     ",
"    ...........                                  ...........    ",
"    ..........                                    ..........    ",
"    ..........                                    ..........    ",
"    ..........                                    ..........    ",
"    ..........                                    ..........    ",
"    ..........                                    ..........    ",
"    ..........                                    ..........    ",
"    ..........                                    ..........    ",
"    ...........                                  ...........    ",
"    ...........                                  ...........    ",
"    ...........                                  ...........    ",
"     ..........                                  ..........     ",
"     ...........                                ...........     ",
"     ............                              ............     ",
"     ............                             .............     ",
"      .............                          .............      ",
"      ..............                        ..............      ",
"      ......   ........                  .................      ",
"       .....    ..........            ...................       ",
"       .......   .........            ...................       ",
"        ......   .........            ..................        ",
"         ......   .......              ................         ",
"         ......     ....               ................         ",
"          ......                       ...............          ",
"           ......                      ..............           ",
"            .....                      .............            ",
"             ......                    ............             ",
"              ...........              ...........              ",
"               ..........              ..........               ",
"                .........              .........                ",
"                  .......              .......                  ",
"                    .....              .....                    ",
"                      ...              ...                      ",
"                                                                ",
"                                                                ",
"                                                                ",
"                                                                "
};
