/* XPM */
static char *_089b7b4fe1e41d495d8cf93a4f7c259645bkXOE4DYTLyfE[] = {
/* columns rows colors chars-per-pixel */
"64 64 27 1 ",
"  c black",
". c #000100",
"X c #010401",
"o c #010602",
"O c #010703",
"+ c #020B05",
"@ c #020C05",
"# c #031107",
"$ c #041208",
"% c #04160A",
"& c #06200E",
"* c #092C13",
"= c #092D13",
"- c #0D431D",
"; c #0E481F",
": c #0F4E21",
"> c #0F4F22",
", c #125C28",
"< c #125E28",
"1 c #14692D",
"2 c #156E2F",
"3 c #167532",
"4 c #187F37",
"5 c #21AB4A",
"6 c #22B04C",
"7 c #22B14C",
"8 c #23B14C",
/* pixels */
"7777777777777777777777777777777777777777777777777777777777777777",
"7777777777777777777777777777777777777777777777777777777777777777",
"7777777777777777777777777777777777777777777777777777777777777777",
"7777777777777777777777777777777777777777777777777777777777777777",
"7777777777777777777777777777777777777777777777777777777777777777",
"77777777777777777777777774%    %27777777777777777777777777777777",
"77777777777777777777774%           %2777777777777777777777777777",
"7777777777777777777774+              %27777777777777777777777777",
"777777777777777777774+     ;77<       o2777777777777777777777777",
"77777777777777777774+   ;777777777<    o277777777777777777777777",
"7777777777777777777#   ;777777777777<   o27777777777777777777777",
"7777777777777777777   ;77777777777777<   o7777777777777777777777",
"7777777777777777774   77773<7777777777<   7777777777777777777777",
"777777777777777777#   7777< 777773<7777   7777777777777777777777",
"777777777777777777   ;77777777777< 7777   7777777777777777777777",
"777777777777777777   2777774%%277777777   7777777777777777777777",
"777777777777777777o  o77777%  o27777777   7777777777777777777777",
"777777777777777777<   %2777<   o7777774   7777777777777777777777",
"7777777777777777777:   o2777<  ;777774+   7777777777777777777777",
"77777777777777777775-      %27777774%    ;7777777777777777777777",
"777777777777777777777<                  ;77777777777777777777777",
"7777777777777777777777<                ;777777777777777777777777",
"77777777777777777777777777<          ;77777777777777777777777777",
"77777777777777777777777777777   77777777777777777777777777777777",
"77777777777777777777777777777   77777777777777777777777777777777",
"77777777777777777777777777777   77777777777777777777777777777777",
"77777777777777777777777777777   77777777777777777777777777777777",
"77777777777777777777777777777   777777777777777774%   %277777777",
"77777777777777777777777777777   27777777777777774+     o77777777",
"77777777777777777777777777774    %277774=2777774+       27777777",
"7777777777777777777777777774+     o2777#  %2774+   ;7o  o7777777",
"777777777777777777777777774+        %27o   o24+   ;77<   7777777",
"77777777777777777777777774+          o2<    oo   ;7777o  7777777",
"7777777777777777777777774+   ;   <    o27<      ;77777< ;7777777",
"777777777777777777777774+   ;7   77<   o27-    =7777777777777777",
"77777777777777777777774+   ;77   777<   o:+    o2777777777777777",
"7777777777777777777774+   ;777   7777<          o277777777777777",
"777777777777777777774+   ;7777   77777<     ;<   o77777777777777",
"77777777777777777777#   ;77777o  777777@   ;77<  ;77777777777777",
"77777777777777777777o  ;777774@ =777777<  ;777777777777777777777",
"77777777777777777777< ;777777#  o7777777777777777777777777777777",
"77777777777777777777777777774   $1777777777777777777777777777777",
"7777777777777777777777777774+     <77777777777777777777777777777",
"777777777777777777777777774+   &  o77777777777777777777777777777",
"77777777777777777777777774+   ;5   77777777777777777777777777777",
"7777777777777777777777774+   ;77   27777777777777777777777777777",
"777777777777777777777774+   ;777o  o7777777777777777777777777777",
"77777777777777777777774+   ;7777<   2777777777777777777777777777",
"7777777777777777777774+   ;777777o  o777777777777777777777777777",
"777777777777777777774+   ;7777777<   777777777777777777777777777",
"77777777777777777777#   ;777777777o  <77777777777777777777777777",
"77777777777777777774   ;7777777777:  o27777777777777777777777777",
"7777777777777777774+   777777777775o  o7777777777777777777777777",
"777777777777777774+   ;777777777777<   2777777777777777777777777",
"77777777777777777#   ;77777777777777o  o777777777777777777777777",
"77777777777777777o  ;777777777777777<   277777777777777777777777",
"77777777777777777< ;77777777777777777o  o77777777777777777777777",
"7777777777777777777777777777777777777<   27777777777777777777777",
"77777777777777777777777777777777777777o  o7777777777777777777777",
"77777777777777777777777777777777777777<   7777777777777777777777",
"777777777777777777777777777777777777777< ;7777777777777777777777",
"7777777777777777777777777777777777777777777777777777777777777777",
"7777777777777777777777777777777777777777777777777777777777777777",
"7777777777777777777777777777777777777777777777777777777777777777"
};
