/* XPM */
static char *_ed618f4c2ab4aa1e1b5a26f4eebb55c2nK8Ti0p5KWi3GXu[] = {
/* columns rows colors chars-per-pixel */
"64 64 236 2 ",
"   c None",
".  c #13161C",
"X  c #141013",
"o  c #231A15",
"O  c #2E251C",
"+  c #30261E",
"@  c #161B28",
"#  c #231F29",
"$  c #1D212D",
"%  c #1E2333",
"&  c #1F2638",
"*  c #262727",
"=  c #342B23",
"-  c #3C2E25",
";  c #382B27",
":  c #3E3328",
">  c #212635",
",  c #242A3C",
"<  c #202739",
"1  c #35363B",
"2  c #45281E",
"3  c #591122",
"4  c #6D172A",
"5  c #452C26",
"6  c #43322B",
"7  c #4A382B",
"8  c #533D2B",
"9  c #4C3C33",
"0  c #543D35",
"q  c #5A3E34",
"w  c #5D2D3E",
"e  c #6C2D30",
"r  c #6E0E1F",
"t  c #4F422E",
"y  c #5A432E",
"u  c #4A4239",
"i  c #5D453A",
"p  c #584438",
"a  c #63463B",
"s  c #644A3D",
"d  c #6A4939",
"f  c #68553A",
"g  c #76553D",
"h  c #7C483E",
"j  c #262D43",
"k  c #292E43",
"l  c #282E49",
"z  c #2B3245",
"x  c #2D344B",
"c  c #2A344B",
"v  c #31374C",
"b  c #33394D",
"n  c #343744",
"m  c #2F3653",
"M  c #2F3953",
"N  c #313653",
"B  c #333B54",
"V  c #343D5B",
"C  c #383E5A",
"Z  c #383E52",
"A  c #2B2C52",
"S  c #2E3E60",
"D  c #7A3842",
"F  c #3A4256",
"G  c #37405E",
"H  c #3B435B",
"J  c #344856",
"K  c #374060",
"L  c #3A4362",
"P  c #3E4767",
"I  c #2D4062",
"U  c #484748",
"Y  c #574945",
"T  c #41465E",
"R  c #424A5D",
"E  c #494C59",
"W  c #555252",
"Q  c #6B4D42",
"!  c #644C43",
"~  c #695248",
"^  c #735245",
"/  c #7A5848",
"(  c #785D58",
")  c #685D55",
"_  c #7C6749",
"`  c #696357",
"'  c #7B6557",
"]  c #404763",
"[  c #434A63",
"{  c #464867",
"}  c #4A5167",
"|  c #54596B",
" . c #797467",
".. c #776961",
"X. c #861C2C",
"o. c #95182D",
"O. c #A61C37",
"+. c #B51D35",
"@. c #B21C2E",
"#. c #B02238",
"$. c #89202B",
"%. c #C21D39",
"&. c #C8253E",
"*. c #AE2544",
"=. c #C92946",
"-. c #D62A48",
";. c #DD324F",
":. c #CD3256",
">. c #E83155",
",. c #835C45",
"<. c #915948",
"1. c #88674B",
"2. c #98694C",
"3. c #846355",
"4. c #886958",
"5. c #976A59",
"6. c #85785B",
"7. c #9A7659",
"8. c #A77A59",
"9. c #B0785F",
"0. c #8F5472",
"q. c #886866",
"w. c #887A66",
"e. c #987767",
"r. c #927670",
"t. c #A97A66",
"y. c #A67D75",
"u. c #B0466C",
"i. c #C95972",
"p. c #B3815E",
"a. c #978465",
"s. c #8A8775",
"d. c #9A8674",
"f. c #9E9062",
"g. c #A9886A",
"h. c #BA8D64",
"j. c #B48A6D",
"k. c #B78768",
"l. c #A79368",
"z. c #BA976C",
"x. c #AB8779",
"c. c #B88776",
"v. c #A89775",
"b. c #B89877",
"n. c #B5A578",
"m. c #ADA077",
"M. c #C5936E",
"N. c #C29576",
"B. c #C69A77",
"V. c #C9A27A",
"C. c #707183",
"Z. c #A66F90",
"A. c #CF718D",
"S. c #7F8E98",
"D. c #8F8A8F",
"F. c #A79487",
"G. c #B79887",
"H. c #AA8D8F",
"J. c #A8A28A",
"K. c #B5A886",
"L. c #B9A999",
"P. c #BAB39A",
"I. c #ADA694",
"U. c #888CA3",
"Y. c #B9B4A3",
"T. c #B7AFAC",
"R. c #B88CA1",
"E. c #C79B86",
"W. c #C59795",
"Q. c #D69893",
"!. c #C8A587",
"~. c #D3A58C",
"^. c #D5A987",
"/. c #DCB48B",
"(. c #CAA99A",
"). c #D7AA96",
"_. c #C7B697",
"`. c #DCB395",
"'. c #DBB49B",
"]. c #D6B89A",
"[. c #E2B69D",
"{. c #E4BA9B",
"}. c #E2B695",
"|. c #E0AD98",
" X c #D999B2",
".X c #D08FAD",
"XX c #D7AAA3",
"oX c #C7B9A7",
"OX c #DCBCA4",
"+X c #DBBBAB",
"@X c #D8B6A7",
"#X c #CEB6B7",
"$X c #E4BCA3",
"%X c #E6BCA9",
"&X c #E5AFB6",
"*X c #DDC19E",
"=X c #E7C39E",
"-X c #D5CDAB",
";X c #D6CBB9",
":X c #DCD5B9",
">X c #CFC7B6",
",X c #E3C4AD",
"<X c #ECC4AB",
"1X c #E9C4A7",
"2X c #EDCAB6",
"3X c #ECCCBA",
"4X c #E7C6B7",
"5X c #F1CCB3",
"6X c #F2CDB9",
"7X c #F4D1BC",
"8X c #EECCB1",
"9X c #B6B9CE",
"0X c #DCB2CB",
"qX c #E8BBD3",
"wX c #DBD9C5",
"eX c #CFCBD0",
"rX c #EDD4CB",
"tX c #EBD6C6",
"yX c #F3D4C2",
"uX c #F5D9CA",
"iX c #FADCCB",
"pX c #F6D6C6",
"aX c #F6DAD5",
"sX c #EFD2D3",
"dX c #FAE5D8",
"fX c #EEE0D9",
"gX c #DFE3EC",
"hX c #E3E6EC",
"jX c #FAE9E5",
"kX c #E9ECF3",
"lX c #EBF2F6",
"zX c #F5FAFD",
"xX c #FEFFFE",
"cX c #F4F5F8",
"vX c #F6ECF4",
"bX c #D9DDEA",
/* pixels */
"                                                                                                                                ",
"                                                                                                                                ",
"                                                                      6._                                                       ",
"                                                              1.v.n.l.f.f.m.K.K.v.                                              ",
"                                                        ` ' a.l.7.l.n.v.l.K.m._.n.l.s.s.                                        ",
"                                                      ` f _ v.n.l.l.z.!.].:X-X:X-X_.-X:XY.s.                                    ",
"                                                      t f 1.v.!._.!.].].!.!.b.oXtX-X:XwXwXwXY. .                                ",
"                                                    9 8 g g.g.!.OX^.B.!.'.N.j.z.g._._.-XP.I.P.s.                                ",
"                                                    7 f _ 8.N.'.`.^.^.^.`.M.k.k.8.b.l.v.v.w.6.s.                                ",
"                                                  p f f 5.N.^.}.5X5X<X<X<X}.^.p.M.j.b.b.v.w.w.D.                                ",
"                                                  = t ^ 7.{./.1X5X7X7X6X$X6X7X`.M.h.g.a._.P.J.w.                                ",
"                                                  p f _ V.=X^.}.2XtXyXiX5X,X].`.^.V.k.b.a.Y.J. .W                               ",
"                                                  t ' d.B./.5X3X(.(.yXaX+X4XG.b.1X/.p.K.v.K.J.s.W                               ",
"                                                  t oXL.z.*Xb.g./ 5.E.[.OXc.e.1.g.B.B.!.J.oXoX`                                 ",
"                                                Y Y.>XG.h.!.7.g.7.5.j.yX@Xy.5.oXG.OXB.b.P.oXY.                                  ",
"                                                = T.>X@Xh.].2.x.4X#XE.yXrXe.(.H.5.@XB.].oXoXI.                                  ",
"                                                  F.v.!.h.7.L.jXdXjXOXyX4XaX+XjXfXq E.,XP.#X..                                  ",
"                                                  r.L.z.].,XtXfXsXrX%XiX@X$XfXrXdX4X!.E.L.Y.Y                                   ",
"                                                  ' F.k.^.OX4XrXdX$X~.uXyX$X2XuXdX7X'.!.G.F.;                                   ",
"                                                   .G.k.1X3XpXdXdX{.'.jXtXN.2XiXiX3X'.~.b.oX6                                   ",
"                                                  d.G.8.1X6XiXdXdX3Xh XX<.G.rXjXdXpX$X~.t.;XO                                   ",
"                                                = F.G.7.[.8XiXjXjX(.5 d X h XXaXjXpX$X~.g.L.7                                   ",
"                                                6 ~ d.1.N.$X6XdX[.c.5.q W.E.%X~.4X4X^.j.j.d.p                                   ",
"                                                7 4.e.g N.{.2X2X<X7X<XaXrXOX3X[.XXOXE.k.c.4.'                                   ",
"                                                G.!.3./ k.`.$X$X{.<X4XsXtX4X2XyXc.%X^.k.t.a 4.w.                                ",
"                                                +XXXe./ p.'.$X$X}.+XXXW.y.t.W.3X4X3X^.k.j.2 7.r.                                ",
"                                                tX4Xe.,.k.'.yX!.,.4X,XXXXX).@X(.,XuX[.b.j.y.(.                                  ",
"                                                d.tX5.2.8.'.uX4X$XE.9.<.t.k.).4XdXyX!.j.t.G.+X                                  ",
"                                                - ;X5.8.8.^.1XpX|.E.'.yX3X).~.<XuX2X~.t.t.fXpX                                  ",
"                                                  +XXX,.2.B.1X2X<X6X).rX%X~.2X3X3X4X~.9.2.uX+X                                  ",
"                                                  a 5 y g h.`.2X6XyX).XX%X~.1X8X<X$XN.2.d c.                                    ",
"                                                  = o 8 d h.^.$X{.3X%XQ.XXE.}.}.`.^.c.,.- =                                     ",
"                                                  u o s p 1.!.b.E.).@XW.c.@X'.b.~.`.2.q O                                       ",
"                                                  ) p i 9 d j.e.3.x.c.5.c.c.g.7.E.c.d 5 +                                       ",
"                                                  ` r.8 - = p 3.a a / / / ^ d ,.1.g 6 = ;                                       ",
"                                                  ` i 8 ' : : i p q d d q q a s Q q - = 9                                       ",
"                                                    1 e.s 7 6 p ~ i i a p 0 s ^ ^ 6 6 +                                         ",
"                                                      C.9 / 6 9 i i a q ! i Q ^ i 9 7 :                                         ",
"                                                    > lXu Q 3.9 ~ Q ,./ i Q ^ a q 7 p =                                         ",
"                                                    S.lXeXY ~ r.! Q 3.3./ ^ / Q ^ q 0                                           ",
"                                                  n J zXzXzXD.) ' ~ 3.c.e.e./ Q a 0                                             ",
"                                                  > , zXzXzXzXT.' ' ( e.G.x.3./ Q Y                                             ",
"                                                z z x bXxXxXxXxXxXW r.y.F.x.q.( ( Y D.                                          ",
"                                              B b z x K xXxXxXxXxXxXD.F.x.x.! q.q.xXeX                                          ",
"                                          z z x B x x c zXxXxXxXxXxXxXcX..r.e.W.vXkXhX                                          ",
"                                    n b x b z x C x m B S xXxXxXxXxXxXxXxXeXH.eXxXlXgX                                          ",
"                          n b Z Z b b b b x z x x G V B V kXxXxXxXxXxXxXzX0Xu.0.xXzXhX%                                         ",
"                      n v b Z b b x b x z z , B B V G V L I xXxXxXxXxXxXxXA.A.O.Z.zXhX@ F                                       ",
"                  B Z B b Z Z b b b x z z z j M B B G L P P cXxXxXxXxXxX*.O.@.=.D zXhX9Xv H R                                   ",
"              z Z H F Z B B B b b v b x x x B M M B B B G L P xXxXxXxXhX3 3 *.o.e E kXlX, v F T R                               ",
"            & , b F B B B B Z x x Z x z x x @ B B B V V V P L xXxXxXxXD.4 4 0.#Xw W lXzXl x b F F T }                           ",
"          % , z N H B C C B B x v x z x x x x j . B V V V P V { xXxXbXzXzX0.r i.e kXxXcX] H z R F H F R |                       ",
"        % % j , B C B B V N N B B x x x x z x x x V V V L V L G xXxXxXxXxXxX=.>.o.xXU.zXgXC v b R H T H [ }                     ",
"        % % k , x B V V V B V B B Z x v j x N V L G V V V V L L 9XxXxXxXxXxX X%..XxXxXlXxXM H v H F H [ { T } |                 ",
"        $ , z , > B G l G V B N B x z x x z z V G V V V V V L G L xXxXxXxXxX.X-..XH.xXzXxXN H v v F [ } H R T [ }               ",
"      $ > j x j j , V m G L V C N b x x v z x @ V V B V V V L L P xXxXxXxXxXO. X=.4 xXxXxXU.G B Z F H T [ [ H H ] {             ",
"      $ > k z x z c m V K V K V m x v x x z x x C V V B V V L V L ] xXxXxXxX+.qX=.X.xXxXxXzXV b b Z B H ] [ [ C H [ [ E         ",
"      $ % j j x j B m V j V K V V B B x x x x x % B V V V V G L P G xXxXxXxX&.@.-. X0.xXxXxXB L v * eXZ H L H H B H H [ U       ",
"      . % j j V j k m M k V G V V B B x x x x B N V V V V V V V L L C.xXxXzX;.+.-.Z.X.xXxXxXH { n n D.hXH H H H C H C B P       ",
"    @ $ @ , , V V c < l V V V V G V V N x x m x N z G V V V V K V L P xXxXzXsX-.;.#.$.0.xXxXhXL n v C # B H H H H F b z V       ",
"    @ $ $ < , B B V c l V l B V V V V B B N N N N B j V V V V V V L P xXxXxX&X-. X#.o.e xXxXxXC v v b v v F H H F Z C x B 1     ",
"    $ > > < , x B B B V j m B V B V K V B N N N V V B V V L V L V G L A xXxX;.-.&X+.R.X.vXxXxXC B B b B v C C H H v Z B B z     ",
"    % % % % % z B m V V V V c m B V V V V V B B B B V @ V K V V L L V L xXxX:.:.:.&.0Xo.0.xXxXv G b b b b H H Z B B v x B B     ",
"    $ . . $ @ , c V c V L V l c x V L V V V V V V V V B B V L L V L L P xXxXsXxX;.-.#.O.eXxXxXU.L v v b z H H H C C B j z V >   "
};
