/* XPM */
static char *_35eafcffffc4f1c85f716e49c7ed61buDrTNgpHFsA0foEh[] = {
/* columns rows colors chars-per-pixel */
"64 64 26 1 ",
"  c #6E793D",
". c #6F793D",
"X c #74743C",
"o c #EB1E24",
"O c #EC1C24",
"+ c #ED1C24",
"@ c #EE1C24",
"# c #D32F2A",
"$ c #DA2A28",
"% c #C23D2C",
"& c #E72125",
"* c #E62126",
"= c #E02527",
"- c #925F36",
"; c #945E35",
": c #9B5934",
"> c #BB412E",
", c #AE4B31",
"< c #A15534",
"1 c #886638",
"2 c #816B39",
"3 c #28AC4B",
"4 c #35A348",
"5 c #22B04C",
"6 c #22B14C",
"7 c #5B8741",
/* pixels */
"6666666666666666666666666666666666666666666666666666666666666666",
"6666666666666666666666666666666666666666666666666666666666666666",
"6666666666666666666666666666666666666666666666666666666666666666",
"666667> 66666666666666666666666666666666666666666666666666666666",
"66666$+&66666666666666666666666666666666666666666666666666666666",
"66666+++ 6666666666666666666666666666666666666666666666666666666",
"66666&++& 666666666666666666666666666666666666666666666666666666",
"666662+++& 66666666666666666666666666666666666666666666666666666",
"6666662+++& 66666666666666666666666666666666666666667## 66666666",
"66666662+++& 666666666666666666666666666666666666667=++&66666666",
"666666662++++# 666666666666666666666666666666666667=+++:66666666",
"6666666662++++& 6666666666666666666666666666666667=+++:666666666",
"66666666662++++& 66666666666666666666666666666667=+++:6666666666",
"6666666666662++++# 66666666666666666666666666667=+++:66666666666",
"66666666666662++++&6666666666666666666666666667=+++:666666666666",
"666666666666662++++X66666666666666666666666667=+++:6666666666666",
"6666666666666666&+++# 66666666666666666666667=+++:66666666666666",
"66666666666666662++++& 666666666666666666667=+++:666666666666666",
"666666666666666663<+++& 6666666666666666667=+++:6666666666666666",
"66666666666666666662+++& 66666666666666667=+++:66666666666666666",
"666666666666666666662+++& 666666666666667=+++:666666666666666666",
"6666666666666666666662+++&66666666666667=+++:6666666666666666666",
"66666666666666666666662+++# 66666666667=+++:66666666666666666666",
"66666666666666666666666;+++& 66666667#++++:666666666666666666666",
"666666666666666666666663<+++& 666667=++++:6666666666666666666666",
"66666666666666666666666662+++& 6667=++++:66666666666666666666666",
"666666666666666666666666662+++& 67=+++:6666666666666666666666666",
"6666666666666666666666666662+++&-=+++:66666666666666666666666666",
"66666666666666666666666666662+++++++:666666666666666666666666666",
"666666666666666666666666666662+++++:6666666666666666666666666666",
"666666666666666666666666666667&+++o 6666666666666666666666666666",
"66666666666666666666666666667=+++++& 666666666666666666666666666",
"666666666666666666666666667#++++%+++& 66666666666666666666666666",
"66666666666666666666666667=++++:62+++& 6666666666666666666666666",
"6666666666666666666666667=++++:6662+++& 666666666666666666666666",
"666666666666666666666667=+++:6666662+++& 66666666666666666666666",
"66666666666666666666667=+++:666666662+++& 6666666666666666666666",
"666666666666666666667#++++:66666666662+++& 666666666666666666666",
"66666666666666666667=++++:6666666666662++++# 6666666666666666666",
"666666666666666667#+++++:666666666666662++++& 666666666666666666",
"66666666666666667=++++:666666666666666662++++& 66666666666666666",
"666666666666667#+++++:666666666666666666662+++& 6666666666666666",
"6666666666667#+++++:666666666666666666666662+++& 666666666666666",
"666666666667=+++++:66666666666666666666666662+++& 66666666666666",
"66666666667=++++:66666666666666666666666666662+++& 6666666666666",
"666666667#++++:66666666666666666666666666666662+++& 666666666666",
"6666667#+++++:6666666666666666666666666666666662+++& 66666666666",
"666667=+++++:666666666666666666666666666666666662+++& 6666666666",
"66667=++++:666666666666666666666666666666666666662+++& 666666666",
"666 =+++:666666666666666666666666666666666666666662+++& 66666666",
"66X++++:66666666666666666666666666666666666666666662+++&X6666666",
"66#+++:6666666666666666666666666666666666666666666662++++# 66666",
"661+,3666666666666666666666666666666666666666666666662++++& 6666",
"6664666666666666666666666666666666666666666666666666663<+++&6666",
"666666666666666666666666666666666666666666666666666666662++:6666",
"6666666666666666666666666666666666666666666666666666666666666666",
"6666666666666666666666666666666666666666666666666666666666666666",
"6666666666666666666666666666666666666666666666666666666666666666",
"6666666666666666666666666666666666666666666666666666666666666666",
"6666666666666666666666666666666666666666666666666666666666666666",
"6666666666666666666666666666666666666666666666666666666666666666",
"6666666666666666666666666666666666666666666666666666666666666666",
"6666666666666666666666666666666666666666666666666666666666666666",
"6666666666666666666666666666666666666666666666666666666666666666"
};
