/* XPM */
static char *result[] = {
/* columns rows colors chars-per-pixel */
"64 64 231 2 ",
"   c None",
".  c #1C0C04",
"X  c #140703",
"o  c #191706",
"O  c #220E06",
"+  c #251106",
"@  c #2A1307",
"#  c #261108",
"$  c #2C1409",
"%  c #261B08",
"&  c #32170A",
"*  c #35190B",
"=  c #3B1B0C",
"-  c #042C03",
";  c #0B2D04",
":  c #172B07",
">  c #053404",
",  c #0A3304",
"<  c #063C05",
"1  c #093C06",
"2  c #0A3D08",
"3  c #0C3609",
"4  c #123D0A",
"5  c #183B09",
"6  c #25380A",
"7  c #202608",
"8  c #411F0D",
"9  c #45210F",
"0  c #4B2410",
"q  c #462210",
"w  c #552813",
"e  c #532712",
"r  c #463C08",
"t  c #064305",
"y  c #094406",
"u  c #074B06",
"i  c #094B07",
"p  c #0B4409",
"a  c #0B4C09",
"s  c #064709",
"d  c #12460B",
"f  c #124C0C",
"g  c #154308",
"h  c #095207",
"j  c #0A5A07",
"k  c #0B5409",
"l  c #0C5B09",
"z  c #075506",
"x  c #13530D",
"c  c #125C0D",
"v  c #1A5C0C",
"b  c #1B550A",
"n  c #165211",
"m  c #195411",
"M  c #175B11",
"N  c #1B5C12",
"B  c #154B10",
"V  c #22490C",
"C  c #235C04",
"Z  c #255A0F",
"A  c #265813",
"S  c #0C630A",
"D  c #0D6B0B",
"F  c #0A6107",
"G  c #13630D",
"H  c #1B640C",
"J  c #136B0D",
"K  c #1C6A0B",
"L  c #196107",
"P  c #0E730B",
"I  c #0E7B0C",
"U  c #13740D",
"Y  c #147B0E",
"T  c #1A750C",
"R  c #166310",
"E  c #1C6414",
"W  c #166C11",
"Q  c #1B6B13",
"!  c #157311",
"~  c #1B7414",
"^  c #177D12",
"/  c #1C7C14",
"(  c #246708",
")  c #366C02",
"_  c #25750C",
"`  c #297C0A",
"'  c #387A05",
"]  c #216414",
"[  c #226C13",
"{  c #236518",
"}  c #236D19",
"|  c #2B671A",
" . c #227415",
".. c #2B7D13",
"X. c #24741A",
"o. c #2A751C",
"O. c #247D1A",
"+. c #2C7C1D",
"@. c #257617",
"#. c #34791C",
"$. c #377626",
"%. c #2E7D20",
"&. c #527904",
"*. c #14820E",
"=. c #1C810D",
"-. c #1D8313",
";. c #198712",
":. c #1D9216",
">. c #199915",
",. c #0E800B",
"<. c #28860D",
"1. c #32870C",
"2. c #2D910E",
"3. c #238214",
"4. c #2C8313",
"5. c #238E15",
"6. c #2C8C13",
"7. c #24831A",
"8. c #2B821D",
"9. c #248A1A",
"0. c #2B8B1D",
"q. c #328B1B",
"w. c #34851C",
"e. c #2A9B14",
"r. c #23931A",
"t. c #2B931D",
"y. c #2B991E",
"u. c #25991A",
"i. c #339A14",
"p. c #339A1C",
"a. c #35941F",
"s. c #1AA215",
"d. c #2BA61D",
"f. c #33A41E",
"g. c #36A918",
"h. c #3AB617",
"j. c #2E8321",
"k. c #2D8D21",
"l. c #328B22",
"z. c #368725",
"x. c #2E9321",
"c. c #2D9A21",
"v. c #339324",
"b. c #3A9526",
"n. c #349C24",
"m. c #3B9C24",
"M. c #3B9529",
"N. c #3C9D2B",
"B. c #34A425",
"V. c #34AA25",
"C. c #3DA32A",
"Z. c #3EAB2B",
"A. c #3AA724",
"S. c #3DB32B",
"D. c #3DB92C",
"F. c #4E8B04",
"G. c #438A04",
"H. c #4F9104",
"J. c #529504",
"K. c #5E9902",
"L. c #518B02",
"P. c #619F02",
"I. c #49AB1E",
"U. c #41B91B",
"Y. c #53AD07",
"T. c #67A602",
"R. c #74B301",
"E. c #7AB500",
"W. c #7DBD02",
"Q. c #76BA04",
"!. c #6EB502",
"~. c #459A2A",
"^. c #518724",
"/. c #45A42C",
"(. c #44AC2D",
"). c #49AC2C",
"_. c #46A627",
"`. c #45B123",
"'. c #43B32E",
"]. c #49B42C",
"[. c #43BA2D",
"{. c #4BBB2D",
"}. c #4BB726",
"|. c #51B72D",
" X c #4CAC32",
".X c #4AA632",
"XX c #53AA34",
"oX c #45B531",
"OX c #4BB432",
"+X c #46BB31",
"@X c #4BBC34",
"#X c #53B235",
"$X c #58BB35",
"%X c #49C81C",
"&X c #73C209",
"*X c #49C527",
"=X c #54CB2C",
"-X c #54D427",
";X c #46C432",
":X c #4CC335",
">X c #52C334",
",X c #5ACA35",
"<X c #53C439",
"1X c #5CC53B",
"2X c #5BC839",
"3X c #54D42C",
"4X c #62CB3B",
"5X c #63D53D",
"6X c #69D23E",
"7X c #69DC3B",
"8X c #5EE32F",
"9X c #62E438",
"0X c #72EA3E",
"qX c #6CD342",
"wX c #67D941",
"eX c #71DC45",
"rX c #75DE48",
"tX c #6EC747",
"yX c #6EE743",
"uX c #74E345",
"iX c #74E449",
"pX c #7AE949",
"aX c #85BD01",
"sX c #83C301",
"dX c #8CCB01",
"fX c #96D400",
"gX c #91CB00",
"hX c #81E94E",
"jX c #80EE50",
"kX c #8EED72",
"lX c None",
/* pixels */
"lXlXlXlXlXlXlXlXlXlXlXlXlXlXlXlXlXlXlXlXlXlXlXlXlXlXlXlXlXlXlXlXlXlXlXlXlXlXlXlXlXlXlXlXlXlXlXlXlXlXlXlXlXlXlXlXlXlXlXlXlXlXlXlX",
"lXlXlXlXlXlXlXlXlXlXlXlXlXlXlXlXlXlXlXlXlXlXlXlXlXlXlXlXlXlXlXlXlXlXlXlXlXlXlXlXlXlXlXlXlXlXlXlXlXlXlXlXlXlXlXlXlXlXlXlXlXlXlXlX",
"lXlXlXlXlXlXlXlXlXlXlXlXlXlXlXlXlXlXlXlXlXlXlXlXlXlXlXlXlXlXlXlXlXlX9XiXlXlXlXkXlXlXlXlXlXlXlXlXlXlXlXlXlXlXlXlXlXlXlXlXlXlXlXlX",
"lXlXlXlXlXlXlXlXlXlXlXlXlXlXlXlXhX0XpXjXpXyXpXpX9XlXlXlXlXlXlXlXlXpXrXeXuX7X6XeXrXiXOXlXlXlXlXlXlXlXlXlXlXlXlXlXlXlXlXlXlXlXlXlX",
"lXlXlXlXlXlXlXlXlXlXlXlX5XqX6XwX#XqXqXuXyX3XyX2X@XlXlXlXlXlXqXuXpXrX1XOX2XZ.B.|.1X7X].c.Z.lXlXlXlXlXlXlXlXlXlXlXlXlXlXlXlXlXlXlX",
"lXlXlXlXlXlXlXlXlXlX=X'.OX.X.XOXN.OX2X@X;X[.3Xf.D ! g.9X;X+X2X$X#X.X X.X8./.).>XZ.oX5XZ.C.lXlXlXlXlXlXlXlXlXlXlXlXlXlXlXlXlXlXlX",
"lXlXlXlXlXlXlXlXlXlX].`.Z.C.c.x.k.C.oXC.D.D.{.S.u.i.2.P *X`.(.C.X.N N o.X.7.X.9.*.:.x./ 9.c.U lXlXlXlXlXlXlXlXlXlXlXlXlXlXlXlXlX",
"lXlXlXlXlXlXlX%X`.-X-Xk./ -./ J O.E j.-.B.oX0.D / i.S S l U `.4.~ } a M Q c R l J R D D D lXlXlXlXlXlXlXlXlXlXlXlXlXlXlXlXlXlXlX",
"lXlXlXlXlXlX%XU.`.=XT -.P D S i k x / D -.*.G S f < i i h 4.q.j.N A N Q M j k a f v l lXlX;XlXlXlXlXlXlXlXlXlXlXlXlXlXlXlXlXlXlX",
"lXlXlXlXlXlXlX{.`.:X{.$X%Xg.i.l c H j i h D D S u k z 3.{.4X@XC.n.c.n.5.;.*.G k H lX~.#X].+X-XlX*XlXlXlXlXlXlXlXlXlXlXlXlXlXlXlX",
"lXlXlXlX>X].C.v.n.v.b.}.h.i.a.~.).I.D z D V A ( :.V.^.*X(.OXZ.oXS.5.B.,XoXx.W N | #X4X$X5X2X>X,X*X8XlXlXlXlXlXlXlXlXlXlXlXlXlXlX",
"lXlXlXc.C.C.l.[ R W O.6.A C v w.A.f.p.W J u.#.d.d.[.u.;.c.n.l.v.x.] [ $.+.X.a o.~.5X>X(.S.(.#X6X].,XlXlXlXlXlXlXlXlXiXlXlXlXlXlX",
"lXlXlXlXo.m a p t a i f c z c ^ >.Y.*.S G 7.c.c.s.5.S j F.Q.X.w.N f j S M Q / n.(.OX).(.oXn.$X/._.+X,X}.lXlXlXlXlX7XeXtX}.lXlXlX",
"lXlXlXlXK k y 1 , > y 1 > < j j D Y.P z k a z h D z u y E.sXH.l h t 2 j :.c.B.N.n.j.0.n.x.W t.x.+XB.a._.lX6XlXhXhX>XN.m.0.lXlXlX",
"lXlXlXlXlXlXlXlX> y y h k k u t L.fXJ.z l l h z S y 1 C fXfXaXa i a v r.oXB.n.n./  .J ..^ S 4.[ v.Z./.).#X2XqX5Xn.#./ 9.7.M lXlX",
"lXlXlXlXlXlXlXlXlXl z l k l j D fXfXH.S S S z z i i y C fXfXF.z c S 5.;.:.~ ~ Y p y a j z c v l O./.C.#XXX Xz.o.X.k.7.~ J k lXlX",
"lXlXlXlX6XrX:X'.x.S s s h h k J.fXfXu < t i t > < y d j k ] G S k h u S S s y < - F z j l c M c ^ r.0.v..Xz.| o.j.v.=.I D D lXlX",
"lXlXlXC.oX:X'.oXn.x.7.8.S h h l R.L.> > t , > t i 5.>.u.n.V.a.i.4.a < 2 y a l k U 7.r.n.^ D O./ B.5.7.j.M.A +.]  .3.D D e.h.i.lX",
"lXlXOXOX'.(.@XS.S.+XB.B.-.J z h < < < u i : : c H c.;X;X;X{.h.e.<.u > < 2 s l Q 9.d.h.:.e.6.p.>.f.v.q./ 4.` L L l u g v  .2.1.lX",
"lXlXlXC.v.v.v./.C.{.8X3XZ.v.U k S S y.8.t.'.@X).)./.].m.V.4. .T =.j l c H <.S Y ^ ` U T *.,.j i S P D _ 1.2.S h h t sX&.v _ lXlX",
"lXlXXX/.o.N { j.j.O.r.7.Q J 5.u.B.].OX(.@X<X~./.0.v.0.1 s u i j P 4.d.g.g.<.2._ K z a i u y y l S D D T.v j i k z j fX!.D lXlXlX",
"lX].M.%.A R S P ~ j.+.8.O.9.'.D.'._.sXv.0.0.k.} } ! ! D h > t x 9.y.y.g.A.Y V P z < > > , : 5 l D l l fX( t h v <.&XfXfXlXlXlXlX",
"lX4. .W S j.x.Z.Z.N.M.Z.9.B.Z.n.c.&XgX! c j G m  .k k h k h t 9.S.V.A.y.y.U L j i 1 f l W O.b.]./.l.fXfXK.u t y l dXfXfXlXlXlXlX",
"lX+./ N.oX<XC.z.%.%.o.Q S j.8.x.u.gXfX6.c k G ! G s y s j j z D 9.W x ! U D S k f J 3.7.q.l.l.k.7.0.fXfXR.u t i lXlXfXlXlXlXlXlX",
"lXy.B.C.(.N.Q 3 2 a h p ` -./ c.I.fXfXaX! Q l f p < , > u u u i h k y h a i G.T D I -.7. .E k h l D fXsXlXlXlXlXlXlXlXlXlXlXlXlX",
"lXx.0.D ' ` < > 2 h k i W.l S / 2.fXfXQ.c c l i ; < < < t t t u t t y y > i fX` D S h i p > s a a f ~ lXlXlXlXlXlXlXlXlXlXlXlXlX",
"lXlXlXk ' ) t y t i i sXfXy a a J.W.k a a > E.C > < > < < > t : > i t y , sXfXT.7 lXt 1 , > a J ~ G D lXlXwX(.l.lXlXlXlXlXlXlXlX",
"lXlXlXlXR.gX( l lXk i fXfX( t y > u s a < < gXdX> > > o ; t < > < y % * * aXfXL.2 5 d N B w.m.9.B.[..XXX XN.j.{ lXlXlXlXlXlXlXlX",
"lXlXlXfXfXfXlXlXlXlXlXfXfXK.- - - - > < t sXfXfX- - + O # : ; % % * * $ + &.gXr 4 4 p n N E o.M.l.M.} ] X.E x lXlXlX,XlXlXlXlXlX",
"lXlXlXfXfXfXlXlXlXlXlXlXlXlXt t > > t i u sXfXdX< > $ + O . $ O $ * # . O + = 8 lXm v k s M M m B B f f x x M lXeXoXN.-.7.lXlXlX",
"lXlXlXfXfXlXlXlXlXlXlXlXlXlXlXlXlXlXlXlXlXlXfXlXlXlX& + O O O O .       O lXlXlXlXQ f k f d B m 5 d B E X.b.(.OX Xj.O.l a lXlXlX",
"lXlXlXlXlXlXlXlXlXlX! p.qXjXuX$X^ D D J -XlXlXlXlXlXlXO + $ $ O .     O a R ] Q J Q W Q | { N A { M } j.x.l.o.%.Q R h u lXlXlXlX",
"lXlXlXlXlXD D ~ N.n.v..XXXN.0.D D S S 5.qXiXlXlXlXlXlXO O @ $ @ # O lXlXp c M x n M M M Q E 2 m m E B m x N f p t t i lXlXlXlXlX",
"lXlXlXlXlXh a l k G J G G c G  .#.S l S  X XlXlXlXlXlX@ O $ * & * & < h l j a a p M d p p 1 3 a p B 2 s a a i 2 t a l lXlXlXlXlX",
"lXlXlXlXlXlXs t < < t a y k k R o.8.7.l.l.R J D D lXlXO . $ = = 6 5 t i t h k M k p 2 2 2 , > t p a f n E a h h k lXlXD lXlXlXlX",
"lXlXlXlXlXlXl j h u s h 2 a k f E 8.w.+.b ] <.P D D lX.   O & V g t < > 1 i p l c k h k s 2 k c ] ] R O.k.l.S S D D l i h lXlXlX",
"lXlXlXl l D ^ n.n.0.q.z.v.W m x ~ k h i x K L z S j h .   . @ 5 6 4 y < < , < < < u l I k S S l x n p ] A o.i h n 2 < y lXlXlXlX",
"lXlXl a ( dXk.M.X.] 8.j.7.o.$.+.G t t c k i j j i i s . . O @ * = $ O $ + o > < > < u < < 3 y p k t > T.( k x x < < < lXlXlXlXlX",
"lXlXlXa ' fXQ X.M B M E N m v Q j u t < y y i u y a lX  . O + @ @ O     lXu t < t t h s E.> 1 t t t ( gX( 1 1 i z s lXlXlXlXlXlX",
"lXlXlXlXdXfXF.y y 2 p n n R 7.q.` j t < t t t i g 6 * # O O O       X   lXlXlXlXlXu 2 y aX) > 1 y 2 K.fXJ.lXlXlXlXlXlXlXlXlXlXlX",
"lXlXlXlXfXfXdX< h a k K Q 2.1.;.l k t t y u h i * = 8 * $ & O O . . .   lXlXlXlXlXi t aXfXfXlXlXlXlXfXfXfXlXlXlXlXlXlXlXlXlXlXlX",
"lXlXlXlXfXfXT.k a k H.G ] b a f p a h G <.L @   O O & & & & O .   O @ & lXlXlXlXlXlXlXfXfXfXlXlXlXlXfXfXlXlXlXlXlXlXlXlXlXlXlXlX",
"lXlXlXlXlXlXlXlXlXj fX' 1 < > > s J <.I D h h lXO . O * = = $ O . @ @ & lXlXlXlXlXlXlXlXfXfXlXlXlXlXlXlXlXlXlXlXlXlXlXlXlXlXlXlX",
"lXlXlXlXlXlXlXlXlXsXfXfX- - - u S ` L 1 lXlXlXlXlX    $ & = + . @ $ O O lXlXlXlXlXlXlXlXlXlXlXlXlXlXlXlXlXlXlXlXlXlXlXlXlXlXlXlX",
"lXlXlXlXlXlXlXlXlXfXfXfX- lXlXj j y E.lXlXlXlXlXlXlX  @ * & O . O @ O . lXlXlXlXlXlXlXlXlXlXlXlXlXlXlXlXlXlXlXlXlXlXlXlXlXlXlXlX",
"lXlXlXlXlXlXlXlXlXfXfXlXlXlXlXi > - fXlXlXlXlXlXlXlX  O $ O O . @ $ $ $ lXlXlXlXlXlXlXlXlXlXlXlXlXlXlXlXlXlXlXlXlXlXlXlXlXlXlXlX",
"lXlXlXlXlXlXlXlXlXlXlXlXlXlXlXlXlXfXfXfXlXlXlXlXlX    + = @   . & 8 = $ lXlXlXlXlXlXlXlXlXlXlXlXlXlXlXlXlXlXlXlXlXlXlXlXlXlXlXlX",
"lXlXlXlXlXlXlXlXlXlXlXlXlXlXlXlXlXfXfXfXlXlXlXlXlX  O $ * O . O * 8 * $ lXlXlXw w lXlXlXlXlXlXlXlXlXlXlXlXlXlXlXlXlXlXlXlXlXlXlX",
"lXlXlXlXlXlXlXlXlXlXlXlXlXlXlXlXlXfXfXlXlXlXlXlX+ . . O O O . + & 9 q lXlX= = q 0 lXlXlXlXlXlXlXlXlXlXlXlXlXlXlXlXlXlXlXlXlXlXlX",
"lXlXlXlXlXlXlXlXlXlXlXlXlXlXlXlXlXlXlXlXlXlXlXlX. . # + O O . @ & 0 q * & & * & = lXlXlXlXlXlXlXlXlXlXlXlXlXlXlXlXlXlXlXlXlXlXlX",
"lXlXlXlXlXlXlXlXlXlXlXlXlXlXlXlXlXlXlXlXlXlXlXlX. . + + $ $ # + + $ $ $ = lX& lXlXlXlXlXlXlXlXlXlXlXlXlXlXlXlXlXlXlXlXlXlXlXlXlX",
"lXlXlXlXlXlXlXlXlXlXlXlXlXlXlXlXlXlXlXlXlXlXlXlX. . $ & $ & * + + # $ = lXlXlXlXlXlXlXlXlXlXlXlXlXlXlXlXlXlXlXlXlXlXlXlXlXlXlXlX",
"lXlXlXlXlXlXlXlXlXlXlXlXlXlXlXlXlXlXlXlXlXlXlXlX  + = = & * = $ # # # & lXlXlXlXlXlXlXlXlXlXlXlXlXlXlXlXlXlXlXlXlXlXlXlXlXlXlXlX",
"lXlXlXlXlXlXlXlXlXlXlXlXlXlXlXlXlXlXlXlXlXlXlXlXO + = * & & & + . # & = lXlXlXlXlXlXlXlXlXlXlXlXlXlXlXlXlXlXlXlXlXlXlXlXlXlXlXlX",
"lXlXlXlXlXlXlXlXlXlXlXlXlXlXlXlXlXlXlXlXlXlXlXlX+ $ = = $ $ $ # + + = q lXlXlXlXlXlXlXlXlXlXlXlXlXlXlXlXlXlXlXlXlXlXlXlXlXlXlXlX",
"lXlXlXlXlXlXlXlXlXlXlXlXlXlXlXlXlXlXlXlXlXlXlX* $ + + + $ & $ O # $ = = 9 q w lXlXlXlXlXlXlXlXlXlXlXlXlXlXlXlXlXlXlXlXlXlXlXlXlX",
"lXlXlXlXlXlXlXlXlXlXlXlXlXlXlXlXlXlXlX= * * = & & $ + + # $ + . @ & $ $ & = w w lXlXlXlXlXlXlXlXlXlXlXlXlXlXlXlXlXlXlXlXlXlXlXlX",
"lXlXlXlXlXlXlXlXlXlXlXlXlXlXlXlXlXlX* & $ $ $ * $ + . O + $ $ + $ @ $ $ lX= 9 9 0 w lXlXlXlXlXlXlXlXlXlXlXlXlXlXlXlXlXlXlXlXlXlX",
"lXlXlXlXlXlXlXlXlXlXlXlXlXlXlXlXlXlX& $ & lX= = $ + + # $ $ & $ & & $ $ = * = & = q w w lXlXlXlXlXlXlXlXlXlXlXlXlXlXlXlXlXlXlXlX",
"lXlXlXlXlXlXlXlXlXlXlXlXlXlXlXlX= & $ lXlX$ & + @ $ $ = = * = * $ * $ & $ & lX$ $ lXlXlXlXlXlXlXlXlXlXlXlXlXlXlXlXlXlXlXlXlXlXlX",
"lXlXlXlXlXlXlXlXlXlXlXlXlXlXlXlXlXlXlXlXlX$ + + lXlX& $ $ $ $ lX$ & lX= lXlXlXlXlXlXlXlXlXlXlXlXlXlXlXlXlXlXlXlXlXlXlXlXlXlXlXlX",
"lXlXlXlXlXlXlXlXlXlXlXlXlXlXlXlXlXlXlX8 # . lX$ lXlX$ + $ $ lXlX$ & lXlXlXlXlXlXlXlXlXlXlXlXlXlXlXlXlXlXlXlXlXlXlXlXlXlXlXlXlXlX",
"lXlXlXlXlXlXlXlXlXlXlXlXlXlXlXlXlXlXlXlXlXlXlXlXlX& $ lX$ lXlXlXlX* = lXlXlXlXlXlXlXlXlXlXlXlXlXlXlXlXlXlXlXlXlXlXlXlXlXlXlXlXlX",
"lXlXlXlXlXlXlXlXlXlXlXlXlXlXlXlXlXlXlXlXlXlXlXlXlXlXlXlXlXlXlXlXlXlXlXlXlXlXlXlXlXlXlXlXlXlXlXlXlXlXlXlXlXlXlXlXlXlXlXlXlXlXlXlX"
};
